<?xml version="1.0" standalone="no"?>
<!DOCTYPE svg PUBLIC "-//W3C//DTD SVG 1.1//EN" "http://www.w3.org/Graphics/SVG/1.1/DTD/svg11.dtd" >
<!--
2013-9-30: Created.
-->
<svg>
<metadata>
Created by iconfont
</metadata>
<defs>

<font id="iconfont" horiz-adv-x="1024" >
  <font-face
    font-family="iconfont"
    font-weight="500"
    font-stretch="normal"
    units-per-em="1024"
    ascent="896"
    descent="-128"
  />
    <missing-glyph />
    
    <glyph glyph-name="x" unicode="x" horiz-adv-x="1001"
d="M281 543q-27 -1 -53 -1h-83q-18 0 -36.5 -6t-32.5 -18.5t-23 -32t-9 -45.5v-76h912v41q0 16 -0.5 30t-0.5 18q0 13 -5 29t-17 29.5t-31.5 22.5t-49.5 9h-133v-97h-438v97zM955 310v-52q0 -23 0.5 -52t0.5 -58t-10.5 -47.5t-26 -30t-33 -16t-31.5 -4.5q-14 -1 -29.5 -0.5
t-29.5 0.5h-32l-45 128h-439l-44 -128h-29h-34q-20 0 -45 1q-25 0 -41 9.5t-25.5 23t-13.5 29.5t-4 30v167h911zM163 247q-12 0 -21 -8.5t-9 -21.5t9 -21.5t21 -8.5q13 0 22 8.5t9 21.5t-9 21.5t-22 8.5zM316 123q-8 -26 -14 -48q-5 -19 -10.5 -37t-7.5 -25t-3 -15t1 -14.5
t9.5 -10.5t21.5 -4h37h67h81h80h64h36q23 0 34 12t2 38q-5 13 -9.5 30.5t-9.5 34.5q-5 19 -11 39h-368zM336 498v228q0 11 2.5 23t10 21.5t20.5 15.5t34 6h188q31 0 51.5 -14.5t20.5 -52.5v-227h-327z" />
    

    
    <glyph glyph-name="xinzengyuanxingxiantiao" unicode="&#58918;" d="M528.384 764.6042c-247.8848 0-448.8417-200.9569-448.8417-448.8417 0-247.8838 200.9569-448.8407 448.8417-448.8407s448.8417 200.9569 448.8417 448.8407C977.2268 563.6472 776.2698 764.6042 528.384 764.6042zM528.384-48.9208c-201.4085 0-364.6843 163.2748-364.6843 364.6843 0 201.4095 163.2758 364.6833 364.6843 364.6833 201.4085 0 364.6843-163.2748 364.6843-364.6843C893.0683 114.3529 729.7935-48.9208 528.384-48.9208zM570.0383 524.9892c0 3.9311-1.5002 7.8623-4.4995 10.8605-2.9993 2.9993-6.9304 4.4995-10.8605 4.4995h-53.248000000000005c-3.9311 0-7.8623-1.4991-10.8605-4.4995-2.9993-2.9993-4.4995-6.9304-4.4995-10.8605v-166.912h-166.912c-3.9311 0-7.8623-1.4991-10.8605-4.4995-2.9993-2.9993-4.4995-6.9304-4.4995-10.8605v-53.248000000000005c0-3.9311 1.4991-7.8623 4.4995-10.8605 2.9993-2.9993 6.9304-4.4995 10.8605-4.4995h166.912v-166.912c0-3.9311 1.4991-7.8623 4.4995-10.8605 2.9993-2.9993 6.9304-4.4995 10.8605-4.4995h53.248000000000005c3.9311 0 7.8623 1.5002 10.8605 4.4995s4.4995 6.9304 4.4995 10.8605v166.912h166.912c3.9311 0 7.8623 1.5002 10.8605 4.4995s4.4995 6.9304 4.4995 10.8605v53.248000000000005c0 3.9311-1.5002 7.8623-4.4995 10.8605-2.9993 2.9993-6.9304 4.4995-10.8605 4.4995h-166.912V524.989184z"  horiz-adv-x="1024" />

    
    <glyph glyph-name="yinliang" unicode="&#58890;" d="M678.569984 457.371392c-2.898944 7.727104-8.73472 13.999104-16.164864 17.391616-6.076416 3.41504-13.274112 4.893696-20.66432 3.729408-17.586176-2.770944-29.575168-19.423232-26.774528-37.19168 1.586176-10.061824 7.575552-18.320384 15.665152-23.092224 31.039488-33.216512 50.143232-77.703168 50.143232-126.763008 0-53.681152-22.890496-101.904384-59.286528-135.862272-6.747136-5.82144-11.02336-14.427136-11.02336-24.0384 0-17.531904 14.212096-31.744 31.745024-31.744 8.97536 0 17.074176 3.730432 22.847488 9.71776 6.161408 3.576832 10.970112 9.237504 13.513728 16.031744 39.776256 43.931648 64.222208 101.956608 64.222208 165.894144C742.791168 355.395328 718.345216 413.409024 678.569984 457.371392zM789.633024 573.169408c-5.279744 10.749952-16.3328 18.152448-29.118464 18.152448-17.907712 0-32.425984-14.518272-32.425984-32.427008 0-11.754496 6.254592-22.048768 15.619072-27.73504 54.951936-57.501696 88.880128-135.248896 88.880128-221.06624 0-96.089088-42.518528-182.078464-109.546496-240.768l0.124928-0.145408c-10.517504-5.219328-17.752064-16.063488-17.752064-28.601344 0-17.626112 14.288896-31.915008 31.915008-31.915008 10.4704 0 19.762176 5.042176 25.581568 12.829696 0.280576 0.333824 0.562176 0.667648 0.831488 1.012736l0.080896-0.080896c80.111616 70.1184 130.968576 172.84096 130.968576 287.6672C894.793728 412.089088 854.69696 504.603392 789.633024 573.169408zM448.487424 628.278016 289.050624 465.148672 191.880192 465.148672c-41.570304 0-62.021632-22.37952-62.021632-62.032896l0-206.718976c0-39.005184 21.098496-62.042112 62.021632-62.042112l97.171456 0 159.435776-163.109888c45.809664-43.02336 115.52256-24.064 115.52256 47.366144L564.009984 580.92416C564.009984 653.09056 493.427712 670.393088 448.487424 628.278016zM501.989376 50.386688c0-46.959616-20.816896-20.632576-42.176512 0.446464-37.228544 36.745216-93.476864 96.119808-139.710464 145.563648l-86.875136 0c-31.434752 0-41.347072 10.541056-41.347072 41.347072L191.880192 361.77792c0 30.152704 10.559488 41.337856 41.347072 41.337856l87.842816 0c45.993984 49.707008 101.695488 108.972032 138.902528 145.384448 21.117952 20.663296 42.015744 47.586304 42.015744-1.302528C501.989376 446.189312 501.989376 149.355264 501.989376 50.386688z"  horiz-adv-x="1024" />

    
    <glyph glyph-name="zanting" unicode="&#58897;" d="M510.408759-64.414823c-60.290131 0-118.797663 11.81714-173.898609 35.122939-53.199643 22.50148-100.970646 54.706973-141.983735 95.720062s-73.218582 88.784092-95.720062 141.983735c-23.305799 55.101969-35.122939 113.608477-35.122939 173.898609 0 60.290131 11.81714 118.797663 35.122939 173.898609 22.50148 53.200666 54.706973 100.970646 95.720062 141.983735 41.013089 41.014112 88.784092 73.218582 141.983735 95.721085 55.101969 23.305799 113.608477 35.122939 173.898609 35.122939s118.797663-11.81714 173.898609-35.122939c53.199643-22.502503 100.970646-54.706973 141.983735-95.721085 41.013089-41.013089 73.218582-88.784092 95.720062-141.983735 23.305799-55.100946 35.122939-113.608477 35.122939-173.898609 0-60.290131-11.81714-118.797663-35.122939-173.898609-22.50148-53.199643-54.706973-100.970646-95.720062-141.983735s-88.784092-73.218582-141.983735-95.720062C629.205399-52.597683 570.69889-64.414823 510.408759-64.414823zM510.408759 765.591905c-102.377692 0-198.62885-39.868009-271.0206-112.260783-72.392774-72.392774-112.260783-168.642908-112.260783-271.0206s39.868009-198.627826 112.260783-271.0206c72.39175-72.392774 168.642908-112.260783 271.0206-112.260783 102.377692 0 198.627826 39.868009 271.0206 112.260783 72.392774 72.392774 112.260783 168.642908 112.260783 271.0206s-39.868009 198.627826-112.260783 271.0206C709.036585 725.723895 612.785427 765.591905 510.408759 765.591905zM348.547301 573.18578l98.417497 0 0-375.608633-98.417497 0 0 375.608633ZM566.595432 573.18578l98.417497 0 0-375.608633-98.417497 0 0 375.608633Z"  horiz-adv-x="1024" />

    
    <glyph glyph-name="shuaxin" unicode="&#58892;" d="M680.17628 57.030269c-50.974975-36.167734-110.63782-54.307883-171.645288-53.479005-8.06263 0.090051-16.081257 0.514723-24.00881 1.209548-3.225461 0.313132-6.449899 0.851391-9.720386 1.25355-6.226818 0.851391-12.452613 1.701758-18.499329 2.888793-3.762697 0.717338-7.436366 1.679245-11.109012 2.553149-5.957689 1.410116-11.870352 2.843768-17.692964 4.590552-2.777253 0.87288-5.509481 1.88186-8.286734 2.822278-6.674003 2.261507-13.349029 4.613064-19.84293 7.367805-1.477654 0.603751-2.911306 1.298576-4.344958 1.970888-7.614421 3.381004-15.095813 6.919597-22.351054 10.906397-0.358157 0.180102-0.627287 0.335644-0.985444 0.514723-24.546046 13.638625-46.988174 30.68179-66.696028 50.591235-0.313132 0.314155-0.627287 0.673335-0.940418 1.030469-6.136767 6.203282-11.95938 12.719696-17.512862 19.48375-1.164522 1.456165-2.285043 3.001357-3.449565 4.479011-40.089044 50.770314-64.276932 115.022687-64.276932 184.918593l67.995627 0c1.746784 0 3.448542 0.940418 4.344958 2.598174 0.895393 1.63422 0.762363 3.583618-0.224104 5.03876l-114.266463 173.542498c-0.895393 1.343601-2.407839 2.240017-4.13211 2.240017-1.701758 0-3.225461-0.895393-4.120854-2.240017L54.144154 307.792477c-0.962931-1.478677-1.119497-3.40454-0.224104-5.061272s2.598174-2.598174 4.344958-2.598174l67.995627 0c0-82.168418 25.307386-158.335145 68.27499-221.311455 0.537236-0.87288 0.895393-1.813299 1.478677-2.687202 4.479011-6.449899 9.406231-12.384052 14.199397-18.475793 1.746784-2.306532 3.448542-4.680603 5.285377-6.943133 7.03216-8.644891 14.513552-16.752546 22.171975-24.702612 0.76134-0.783853 1.433652-1.567705 2.149966-2.261507 25.800619-26.15673 54.959729-48.194652 86.718037-65.797565 0.806365-0.5137 1.612731-1.006933 2.508123-1.477654 9.138124-4.972245 18.543332-9.473769 28.084639-13.728676 2.37407-1.029446 4.65809-2.171456 7.077186-3.202948 8.15268-3.403516 16.529465-6.404873 24.949228-9.271154 3.986801-1.366114 7.928576-2.75474 11.960403-4.00829 7.391341-2.217505 14.916734-4.053316 22.485107-5.89015 5.061272-1.187035 10.034541-2.464121 15.184841-3.449565 2.104941-0.448208 4.120854-1.096984 6.225795-1.432629 7.167237-1.277086 14.334473-1.9934 21.500687-2.889817 2.597151-0.289596 5.151323-0.737804 7.704472-1.029446 12.900821-1.276063 25.710568-2.12643 38.521339-2.12643 78.432327 0 154.936745 24.275893 220.559325 70.836325 20.918425 14.869662 26.024723 44.050262 11.377118 65.259306C729.98571 66.772144 701.093682 71.900955 680.17628 57.030269M897.77825 300.132006c-0.044002 81.921801-25.172309 157.931962-67.950601 220.774219-0.627287 1.075495-1.074472 2.172479-1.746784 3.157923-5.330402 7.68196-11.107989 14.848173-16.887622 22.036899-0.671289 0.87288-1.298576 1.791809-2.01489 2.642177-39.149649 48.082088-88.286766 85.23629-144.008858 109.513206-1.523703 0.672312-3.046383 1.433652-4.569062 2.105964-8.91402 3.695159-18.006096 6.964622-27.14422 10.077519-3.314489 1.096984-6.584975 2.306532-9.94449 3.314489-7.972579 2.441609-16.080234 4.435009-24.232914 6.338359-4.523013 1.051959-9.003048 2.216481-13.57211 3.112897-2.285043 0.448208-4.389984 1.119497-6.630001 1.52268-6.090718 1.075495-12.228509 1.545192-18.319228 2.330068-4.210905 0.537236-8.376785 1.209548-12.632715 1.657756-10.257621 0.961908-20.425192 1.366114-30.592762 1.545192-1.836835 0-3.673669 0.290619-5.510504 0.290619-0.313132 0-0.627287-0.089028-0.984421-0.11154-78.298274-0.066515-154.668639-24.006763-220.201168-70.500681-20.962427-14.82566-26.068725-44.051285-11.422144-65.259306s43.583634-26.359344 64.501036-11.488659c50.615794 35.899628 109.697401 54.06229 170.256662 53.524031 8.734942-0.066515 17.289782-0.49221 25.755594-1.298576 2.642177-0.313132 5.196349-0.693802 7.7935-1.030469 6.988158-0.851391 13.886265-1.858324 20.694321-3.225461 3.001357-0.582261 6.001691-1.366114 8.91402-2.037403 6.674003-1.52268 13.349029-3.157923 19.887956-5.151323 2.059915-0.672312 4.075829-1.411139 6.135744-2.104941 7.481392-2.464121 14.781658-5.128811 21.992897-8.151657 0.717338-0.313132 1.477654-0.693802 2.194992-0.985444 43.135426-18.788925 80.985476-47.723931 110.503766-83.892689 0.179079-0.224104 0.358157-0.514723 0.537236-0.716314 41.567721-51.218522 66.605977-116.701932 66.605977-187.986465l-67.995627 0c-1.746784 0-3.448542-0.940418-4.343935-2.598174-0.895393-1.657756-0.762363-3.583618 0.224104-5.061272l114.310466-173.519985c0.851391-1.343601 2.375094-2.216481 4.121877-2.216481 1.701758 0 3.224438 0.87288 4.120854 2.216481l114.221438 173.519985c0.985444 1.478677 1.119497 3.40454 0.224104 5.061272-0.895393 1.657756-2.597151 2.598174-4.343935 2.598174l-67.950601 0L897.776204 300.132006z"  horiz-adv-x="1024" />

    
    <glyph glyph-name="shouye" unicode="&#58914;" d="M515.072 848.896c1.024 0 4.096 0 6.144-2.048l422.912-422.912c-32.768-2.048-55.296-25.6-55.296-59.392l0-430.08c-3.072-8.192-8.192-14.336-10.24-15.36l-200.704 0c-3.072 0-9.216 6.144-10.24 9.216L667.648 168.96c0 34.816-24.576 59.392-59.392 59.392L417.792 228.352c-34.816 0-59.392-24.576-59.392-59.392l0-239.616c0-2.048 0-9.216-9.216-9.216l-201.728 0c-3.072 0-9.216 6.144-10.24 9.216L137.216 358.4c0 33.792-22.528 58.368-55.296 59.392L508.928 846.848C510.976 848.896 514.048 848.896 515.072 848.896M515.072 889.856C502.784 889.856 489.472 884.736 480.256 875.52l-466.944-466.944c-6.144-6.144-25.6-31.744 6.144-31.744l56.32 0c12.288 0 18.432-6.144 18.432-18.432l0-429.056c0-25.6 25.6-50.176 50.176-50.176L348.16-120.832c31.744 0 50.176 25.6 50.176 50.176L398.336 168.96c0 12.288 6.144 18.432 18.432 18.432l189.44 0c12.288 0 18.432-6.144 18.432-18.432l0-239.616c0-25.6 25.6-50.176 50.176-50.176l201.728 0c25.6 0 44.032 25.6 50.176 50.176L926.72 364.544c0 12.288 6.144 18.432 18.432 18.432l56.32 0c39.936 0 12.288 25.6 12.288 25.6L549.888 875.52C540.672 884.736 527.36 889.856 515.072 889.856L515.072 889.856z"  horiz-adv-x="1024" />

    
    <glyph glyph-name="yun" unicode="&#58936;" d="M2.569 360.802c0 105.557 72.617 198.305 169.626 225.76C225.893 722.635 358.917 820.269 514.509 820.269c156.817 0 286.17-97.634 339.864-233.708C954.444 558.495 1024 466.971 1024 360.802c0-130.575-105.56-236.746-239.182-236.746-25.019 0-47.598 22.57-47.598 47.587 0 28.681 22.579 47.599 47.598 47.599 80.541 0 144.609 62.845 144.609 141.561 0 42.1-18.92 81.151-50.036 106.169l-8.535 7.936c-2.448 3.049-6.109 5.485-10.983 8.535-2.45 3.061-7.936 3.061-10.985 5.499l-3.049 0c-2.447 3.048-5.497 3.048-7.934 5.486l-3.049 0c-2.45 0-5.498 3.062-8.548 3.062-2.438 0-5.487 0-5.487 2.436l-7.935 0c-3.051 0-5.487 0-8.547 3.049l-5.487 0-14.034 0-3.048 0c-2.449 9.148-5.498 15.859-5.498 25.018-2.437 0-2.437 3.049-2.437 5.486-3.049 5.499-3.049 10.985-5.486 16.483 0 3.049-3.061 3.049-3.061 6.098-2.437 5.486-5.488 10.984-8.536 16.471l0 5.498c-2.448 5.486-7.936 10.985-10.983 16.471-46.988 78.102-133.624 131.187-231.26 131.187-100.071 0-186.708-53.085-233.694-131.187l-7.935-16.471c0-1.837-1.225-1.837-1.825-3.661l-1.225-1.837-8.547-16.471 0-6.098-7.923-16.483 0-5.486c-3.062-9.159-6.11-15.87-6.11-25.018l-5.486 0-13.421 0-6.11 0c-2.437-3.049-5.486-3.049-7.923-3.049l-5.499 0c-2.437-1.836-3.661-2.436-4.273-2.436-0.612-0.612-1.212-0.612-1.825 0-2.437 0-5.498-3.062-7.935-3.062l-5.486 0c-3.062-2.438-5.498-2.438-8.547-5.486l-3.049 0c-2.437-2.438-5.499-2.438-7.936-5.499l-3.049 0c-2.437-3.05-5.486-5.486-8.547-8.535-5.486-2.437-7.923-5.498-10.984-7.936-31.116-25.018-46.974-64.069-46.974-106.169 0-78.716 64.069-141.561 141.559-141.561 28.68 0 50.036-18.918 50.036-47.599 0-25.018-21.356-47.587-50.036-47.587C111.188 124.056 2.569 230.227 2.569 360.802L2.569 360.802zM322.916 202.159c0 14.033 5.486 24.406 10.984 33.555l144.608 158.653c9.16 9.148 21.969 14.034 36.002 14.034 14.034 0 25.019-4.886 36.616-14.034l141.558-158.653c9.147-9.147 14.034-20.746 14.034-33.555 0-25.018-21.356-46.987-50.037-46.987-14.033 0-24.404 7.322-33.564 16.471l-61.007 66.519 0-239.193c0-28.678-21.356-46.987-47.6-46.987-27.454 0-46.985 18.308-46.985 46.987L467.525 238.161l-61.021-66.519c-9.147-9.147-22.568-16.471-36.602-16.471C344.883 155.173 322.916 177.143 322.916 202.159z"  horiz-adv-x="1024" />

    
    <glyph glyph-name="shouye1" unicode="&#58889;" d="M801.096281-145.348997 629.954459-145.348997c-19.96982 0-38.392402 10.295484-50.54314 28.245298-9.143241 13.505595-14.386662 30.933523-14.386662 47.817052L565.024657 100.802192c0 25.476231-23.433712 48.678676-49.166793 48.678676s-49.166793-23.202445-49.166793-48.678676l0-170.089863c0-16.882506-5.244444-34.310434-14.387685-47.817052-12.151761-17.949814-30.573319-28.245298-50.542116-28.245298L219.211631-145.350021c-19.96982 0-38.391379 10.295484-50.54314 28.245298-9.142218 13.505595-14.385639 30.933523-14.385639 47.817052l0 362.864378c0 1.214664-0.084934 2.330068-0.215918 3.318582L70.885444 296.895289c-15.183817 0-34.30634 9.561773-41.475624 27.836999-5.287423 13.475919-6.004761 34.720779 20.6012 59.393715l1.25048 1.098008c45.754067 38.033221 128.830157 106.767676 209.168903 173.2396 77.396741 64.036455 157.407006 130.235157 200.684672 166.205393 14.564717 13.848403 34.637892 21.76163 55.324026 21.76163 20.269649 0 39.447431-7.718799 54.17383-21.770839 45.853327-38.109969 129.175011-107.051131 209.768561-173.733856 81.461313-67.403133 158.405753-131.067105 200.071711-165.700903l0.824785-0.710175c18.999726-16.968463 25.725918-39.201837 17.990746-59.47251-6.42227-16.83441-21.8701-28.14399-38.439474-28.14399l-79.865979 0c-1.517563 0-2.594081-0.158612-3.252067-0.313132-0.13917-0.621147-0.278339-1.617847-0.278339-3.00545l0-362.864378c0-18.191314-8.695033-37.278022-23.856337-52.366671C838.445934-136.713316 819.316248-145.348997 801.096281-145.348997zM631.211079-83.950625 801.017486-83.950625c4.806469 0.473791 14.413268 9.93835 15.017018 14.784728L816.034505 293.576707c0 38.104853 26.700105 64.716954 64.928778 64.716954l35.806507 0c-43.756573 36.295648-108.095927 89.531106-175.527712 145.32483-81.154321 67.147306-165.071569 136.580678-210.779587 174.573991l-1.02433 0.852414-0.947582 0.937348c-3.432169 3.3984-7.374968 5.050016-12.051477 5.050016-4.928243 0-10.114358-1.981121-13.20986-5.045923l-0.948605-0.938372-1.026376-0.853437c-43.11803-35.842323-123.728976-102.537328-201.684442-167.036317C232.008075 455.25704 162.513304 397.758488 114.942869 358.293661l47.220465 0c31.010271 0 53.517891-27.217898 53.517891-64.716954l0-362.864378c0-6.733355 2.89698-12.682857 4.787026-14.662955L400.505673-83.950625c1.89107 1.981121 4.78805 7.930623 4.78805 14.662955L405.293723 100.802192c0 28.26781 12.014638 56.43943 32.961716 77.292364 20.930705 20.834514 49.215912 32.784684 77.603449 32.784684 28.386514 0 56.671721-11.95017 77.602426-32.784684 20.949124-20.852934 32.962739-49.024553 32.962739-77.292364l0-170.089863C626.424052-76.021026 629.321032-81.970528 631.211079-83.950625z"  horiz-adv-x="1024" />

    
    <glyph glyph-name="htmal5icon19" unicode="&#58935;" d="M625.425306 214.410534l-115.472941 115.472941-115.471918-115.472941-54.117548 54.118572 115.471918 115.471918-115.471918 115.472941 54.117548 54.117548 115.471918-115.471918 115.472941 115.471918 54.117548-54.117548-115.472941-115.472941 115.472941-115.471918L625.425306 214.410534zM780.543176 654.590811c-148.824537 148.824537-392.356063 148.824537-541.1806 0s-148.824537-392.355039 0-541.179576 392.356063-148.824537 541.1806 0C929.367713 262.234749 929.367713 505.766274 780.543176 654.590811z"  horiz-adv-x="1024" />

    
    <glyph glyph-name="5176" unicode="&#58915;" d="M425.482797 705.172031c0 56.257492 45.602664 101.895671 101.895671 101.895671s101.895671-45.602664 101.895671-101.895671-45.602664-101.895671-101.895671-101.895671S425.482797 648.914539 425.482797 705.172031zM558.170921 341.203108c21.877913 23.369589 52.528302 38.1798 91.45394 44.217536 8.843507 1.349612 18.219756 2.166482 27.915649 2.734739 3.125416 0.106548 6.073252 0.426193 9.198668 0.426193l60.625971 0c-44.501665 18.503885-76.039956 62.54384-76.039956 113.758047 0 20.421754 5.078801 39.778024 13.993341 56.683685-31.609323 11.54273-60.768036 11.36515-60.768036 11.36515l-204.324084 0c-22.836848-0.532741-42.015538-3.409545-58.104329-8.168701 9.980022-17.758047 15.698113-38.215316 15.698113-59.880133 0-51.214206-31.502775-95.218646-76.075472-113.758047l50.148724 0c0.603774 0.071032 1.172031 0.071032 1.811321 0.071032 3.551609 0 7.422863-0.142064 11.329634-0.426193 8.346282-0.603774 17.473918-1.882353 26.921199-3.800222 51.285239-10.761376 113.154273-44.501665 120.008879-125.265261l0.071032-1.811321 0-63.005549 12.856826 0 0.071032 63.005549C524.892342 258.237514 523.116537 303.769145 558.170921 341.203108zM248.36404 399.378468c56.186459 0 101.895671 45.709212 101.895671 101.966704S304.550499 603.240844 248.36404 603.240844c-56.257492 0-101.895671-45.63818-101.895671-101.895671C146.468368 445.123196 192.142064 399.378468 248.36404 399.378468zM345.500555 366.526082 141.211987 366.526082c-146.255272-2.699223-141.176471-110.206437-141.176471-110.206437L0 5.718091l0.142064 0c0-0.603774-0.106548-1.243063-0.106548-1.775805 0-23.795782 19.356271-43.009989 43.081021-43.009989 23.760266 0 42.938957 19.214206 42.938957 43.009989 0 0.568257-0.071032 1.172031-0.17758 1.775805l0.17758 0 0 231.991121 26.921199 0-0.213097-247.120977 258.059933-0.213097-0.213097 248.470588 27.915649 0 0-233.09212 0.142064 0c0-0.106548 0-0.213097 0-0.355161 0-23.760266 19.214206-43.009989 42.867925-43.009989 23.760266 0 43.009989 19.249723 43.009989 43.009989 0 0.142064 0 0.248613 0 0.355161L484.54606 256.355161C475.134295 368.195339 345.500555 366.526082 345.500555 366.526082zM787.924528 399.413984c56.293008 0 101.931188 45.63818 101.931188 101.931188s-45.63818 101.931188-101.931188 101.931188-101.931188-45.63818-101.931188-101.931188C686.028857 445.052164 731.631521 399.413984 787.924528 399.413984zM885.096559 366.526082l-204.3596 0c-146.290788-2.699223-141.105438-110.206437-141.105438-110.206437l-0.071032-250.601554 0.17758 0c0-0.603774-0.106548-1.243063-0.106548-1.775805 0-23.795782 19.320755-43.009989 43.045505-43.009989 23.760266 0 42.903441 19.214206 42.903441 43.009989 0 0.568257-0.106548 1.172031-0.142064 1.775805l0.142064 0 0 231.991121 26.992231 0-0.319645-247.120977 258.059933-0.213097-0.213097 248.470588 27.915649 0 0-233.09212 0.071032 0c0-0.106548 0-0.213097 0-0.355161 0-23.760266 19.249723-43.009989 42.974473-43.009989 23.689234 0 42.938957 19.249723 42.938957 43.009989 0 0.142064 0 0.248613 0 0.355161L1024 256.355161C1014.694784 368.195339 885.096559 366.526082 885.096559 366.526082z"  horiz-adv-x="1025" />

    
    <glyph glyph-name="iconfontdianxinganli" unicode="&#58916;" d="M792.876 571.245 792.876 727.281c0 17.158-14.049 31.208-31.208 31.208L543.207 758.489 543.207 820.904c0 34.316-28.102 62.415-62.418 62.415L355.954 883.319c-34.317 0-62.417-28.099-62.417-62.415l0-62.414L75.077 758.49c-17.158 0-31.209-14.05-31.209-31.208l0-624.147c0-17.158 14.051-31.207 31.209-31.207l280.877 0 0-187.245 436.922 0 187.253 187.245L980.129 571.245 792.876 571.245zM355.954 820.782l0.123 0.122 124.622 0c0.029-0.029 0.09-0.061 0.122-0.122l-0.031-62.292L355.954 758.49 355.954 820.782zM168.703 696.075l499.338 0 0-62.416L168.703 633.659 168.703 696.075zM792.876-27.06l0 98.987 98.989 0L792.876-27.06zM917.71 134.342 730.459 134.342l0-187.245L418.372-52.903 418.372 508.83 917.71 508.83 917.71 134.342z"  horiz-adv-x="1024" />

    
    <glyph glyph-name="baoxian" unicode="&#59100;" d="M878.703932 741.546092 878.703932 741.546092c-162.778988 0-315.967755 134.173996-317.487681 135.539545-13.964247 12.645136-31.582091 18.914363-49.199935 18.914363-17.587722 0-35.157872-6.284288-49.123374-18.81521C460.589833 875.151528 308.982494 741.546092 145.312384 741.546092c-40.484518 0-73.340535-32.749334-73.340535-73.140974L71.971848 447.216268c0-200.287663 119.057567-368.392042 398.132901-562.094194 12.599953-8.74805 27.239443-13.122074 41.895251-13.122074 14.654552 0 29.281492 4.374025 41.895251 13.122074C832.970585 78.825481 952.028152 246.928605 952.028152 447.216268L952.028152 668.405118C952.028152 708.781697 919.218573 741.546092 878.703932 741.546092L878.703932 741.546092zM689.466173 329.14019l-122.463909 0 0-134.511618-110.004528 0L456.997736 329.14019l-122.433787 0 0 109.712089 122.433787 0 0 122.127542 110.004528 0 0-122.127542 122.463909 0L689.466173 329.14019 689.466173 329.14019zM689.466173 329.14019"  horiz-adv-x="1024" />

    
    <glyph glyph-name="xiugaimima1" unicode="&#58904;" d="M561.203386 115.48551C561.203386 88.132576 538.882304 65.962112 511.343552 65.962112 483.813914 65.962112 461.492838 88.132576 461.492838 115.48551L461.492838 284.305395C461.492838 311.65833 483.813914 333.828794 511.343552 333.828794 538.882304 333.828794 561.203386 311.65833 561.203386 284.305395L561.203386 115.48551ZM861.967827 527.781843 317.73305 527.781843 317.73305 618.185152C317.73305 724.117747 404.508864 810.308032 511.161114 810.308032 617.822483 810.308032 704.598298 724.117747 704.598298 618.185152 704.598298 594.519744 723.909178 575.339168 747.735354 575.339168 771.55241 575.339168 790.87241 594.519744 790.87241 618.185152 790.87241 771.367021 665.392742 896 511.161114 896 356.929485 896 231.458938 771.367021 231.458938 618.185152L231.458938 527.781843 160.71927 527.781843C124.98 527.781843 96 499.006451 96 463.499277L96-63.708371C96-99.215546 124.98-128 160.71927-128L861.967827-128C897.716218-128 926.696218-99.215546 926.696218-63.708371L926.696218 463.499277C926.696218 499.006451 897.716218 527.781843 861.967827 527.781843L861.967827 527.781843Z"  horiz-adv-x="1024" />

    
    <glyph glyph-name="shezhi" unicode="&#59263;" d="M511.50165 596.631772c116.167766 0 212.33399-96.166223 212.33399-212.58163S627.669416 172.190967 511.50165 172.190967c-116.640534 0-212.580606 95.443769-212.580606 211.859175C298.921044 500.961852 394.3423 596.631772 511.50165 596.631772L511.50165 596.631772zM622.308315 736.226087 622.308315 736.226087c10.249435-3.671623 20.49887-6.847965 30.253024-11.241019 10.002818-4.14439 19.778462-8.513908 29.306466-13.425777l42.957371 42.957371c13.155624 13.178137 35.141358 13.178137 48.295959 0.270153l0.24764-0.270153 0.517793-0.472767 108.10309-107.877963c13.178137-13.673417 13.178137-35.141358 0-48.814776L839.033311 554.642448c4.618181-10.001795 9.280364-19.259646 13.673417-29.283953 3.89675-10.001795 7.568373-19.778462 10.744715-30.275537l60.753689 0c18.786878 0 34.419927-15.361873 34.419927-34.419927l0-3.378957 0-149.888775c0-18.540262-15.633049-34.150798-34.667567-34.150798l0-0.225127-60.505026 0c-3.176342-10.271948-6.847965-20.273742-10.744715-30.273491-4.393054-9.777691-9.055237-19.779486-13.673417-29.283953l42.957371-43.22957c13.178137-12.907984 13.178137-34.645055 0-48.070832l0 0-0.49528-0.720408L773.121136 14.0349c-13.155624-14.146185-35.141358-13.650905-48.295959 0l-42.957371 42.709731c-9.529027-5.113461-19.303648-9.978259-29.306466-13.403265l-1.689479-0.991584c-9.055237-3.64911-18.786878-7.320733-28.563546-10.225899l0-61.046355c0-18.787902-15.115256-34.624589-34.172287-34.624589l-3.176342 0.969071L434.867272-62.577988c-19.057031 0-34.667567 14.867616-34.667567 33.655518l0 0 0 61.046355c-10.249435 2.904143-20.25123 7.049556-29.756721 11.216459l-0.517793 0 0 0c-9.731642 3.425006-19.507286 8.537444-28.788673 13.403265l-43.182498-42.709731c-13.44829-13.650905-35.388998-14.146185-48.588625 0l0 0-0.472767 0.24764L140.764977 122.160503c-13.423731 13.425777-13.423731 35.163871 0 48.588625l43.205011 42.710754c-4.865821 9.504468-9.774621 19.506263-13.921058 29.283953-3.64911 10.000771-7.54586 20.001543-10.969842 30.273491L98.302887 273.017326c-18.809391 0-34.419927 15.835663-34.419927 34.622542l0.24764 2.703575L64.130599 460.933183c0 18.539238 15.362896 34.149774 34.419927 34.149774l61.002352 0c2.949168 10.497075 6.846942 20.273742 10.743692 30.275537 3.898797 10.024308 8.807596 19.755949 13.673417 29.283953l-43.205011 42.709731c-13.423731 13.673417-13.423731 35.141358 0 48.814776l0 0.49528 0.74292 0.225127L249.363348 754.787838c13.20065 12.907984 35.141358 12.907984 48.588625-0.270153l43.182498-42.957371c18.561751 9.776667 38.565341 18.088984 59.06421 24.665773l0 60.753689c0 19.058055 15.385409 34.1948 34.667567 34.1948l0.969071 0 152.299685 0c19.057031 0 34.172287-15.136745 34.172287-34.1948l0-0.969071L622.307292 736.226087 622.308315 736.226087zM626.205065 661.776468 626.205065 661.776468c-14.146185 5.878894-29.283953 10.744715-44.421722 14.393825-16.105816 2.703575-28.315906 17.34504-28.315906 33.45188l0 52.734038-84.451414 0L469.016023 709.622172c0-15.115256-10.69969-29.779234-26.332738-32.933063-31.987528-7.072069-61.991889-20.273742-89.338724-37.34863l0 0c-13.425777-8.064676-31.243585-6.847965-42.462091 4.865821l-37.10099 37.59627-60.054771-60.032258 36.156478-36.131919c12.18553-10.722202 15.113209-29.283953 6.328126-43.182498-8.785084-13.921058-16.35448-28.563546-22.706141-43.701315-5.608741-13.921058-10.474562-29.283953-14.393825-44.421722-2.928702-15.858176-16.60212-28.067242-33.677007-28.067242l-52.734038 0 0-84.202751 52.734038 0c15.633049 0 29.779234-10.969842 33.203216-26.851555 3.89675-16.105816 8.762571-31.467689 14.867616-45.88505 6.352685-14.891152 13.921058-29.758768 22.706141-43.184545 7.817036-13.44829 6.105045-30.995945-5.361101-42.236963l-37.123502-37.572734 60.054771-59.785641 35.636638 35.861766c11.241019 12.186554 29.531594 15.138792 43.926442 6.353708 13.674441-8.559956 28.067242-16.107863 42.959418-22.437012 14.167674-5.878894 29.283953-10.271948 44.398186-14.43885 16.376992-3.176342 28.315906-16.804734 28.315906-33.902134l0-52.711526 84.451414 0 0 52.711526 0.51984 0c0 15.858176 10.225899 29.756721 26.106588 33.677007 15.835663 3.89675 30.478152 8.312316 44.646849 13.674441l1.464351 0.989537c15.137769 6.330172 29.531594 13.877055 43.452651 21.963221 13.179161 8.762571 30.749328 6.825452 42.463114-4.910846l36.82879-36.830837 59.808154 59.785641-35.885302 35.635615c-12.186554 11.219529-14.867616 29.756721-6.082532 44.174082 8.785084 13.425777 16.105816 28.067242 22.458501 42.709731 5.856381 14.619976 10.724249 29.283953 14.146185 44.89449 2.928702 16.128329 16.850783 28.315906 33.677007 28.315906l52.711526 0 0 84.202751-52.441373 0c-15.407921 0-29.801746 10.744715-33.45188 27.076682-3.918239 15.160281-8.785084 31.018457-14.642488 45.413306-6.352685 14.867616-13.673417 29.306466-21.713534 42.463114-9.057283 13.424754-7.570419 31.715329 4.143367 43.701315l37.0795 36.851303-59.808154 60.032258-35.861766-36.109406c-10.992355-12.231579-29.283953-14.890128-43.430138-6.352685C655.737682 647.877923 641.342834 655.425829 626.205065 661.776468L626.205065 661.776468zM511.50165 555.137729 511.50165 555.137729c-94.204545 0-171.334203-76.904531-171.334203-171.086563 0-93.979418 77.603449-170.838923 171.334203-170.838923 93.709265 0 170.838923 77.107145 170.838923 170.838923C682.340573 478.008071 605.210915 555.137729 511.50165 555.137729L511.50165 555.137729z"  horiz-adv-x="1024" />

    
    <glyph glyph-name="shubiao" unicode="&#58884;" d="M511.991641-128C267.019494-128 106.454204 89.783902 134.942302 302.790531L179.480033 635.8016C199.644473 786.569927 347.568588 896 511.985371 896 676.404245 896 824.328359 786.569927 844.49489 635.8016L889.0368 302.790531C917.526988 89.783902 756.965878-128 511.991641-128ZM829.837061 313.461029 798.866286 602.718041C782.549159 725.547886 669.267592 823.360784 538.229029 835.032294L538.229029 656.981682C554.90142 648.772963 566.405747 631.642906 566.405747 611.779396L566.405747 470.676376C566.405747 442.844473 543.877747 420.283037 516.087641 420.283037L499.985763 420.283037C472.195657 420.283037 449.667657 442.844473 449.667657 470.676376L449.667657 611.779396C449.667657 631.642906 461.171984 648.772963 477.846465 656.981682L477.846465 834.15458C350.195461 819.327478 241.116473 723.061029 225.129535 602.718041L194.162939 313.461029C169.584849 128.440947 300.652669-68.204669 512.00209-68.204669 723.35151-68.204669 854.417241 128.440947 829.837061 313.461029Z"  horiz-adv-x="1024" />

    
    <glyph glyph-name="tab2biaozhu" unicode="&#59025;" d="M895.208727-13.746424 128.791273-13.746424c-30.192485 0-54.737455 24.54497-54.737455 54.737455L74.053818 654.118788c0 30.192485 24.54497 54.737455 54.737455 54.737455l54.737455 0c18.137212 0 32.845576-14.708364 32.845576-32.845576s-14.708364-32.845576-32.845576-32.845576L139.74497 643.165091l0-591.235879 744.510061 0L884.25503 643.180606 841.386667 643.180606c-18.137212 0-32.845576 14.708364-32.845576 32.845576s14.708364 32.845576 32.845576 32.845576l53.822061 0c30.192485 0 54.737455-24.54497 54.737455-54.737455l0-613.127758C949.946182 10.798545 925.401212-13.746424 895.208727-13.746424zM680.448 645.647515 346.174061 645.647515c-17.345939 0-31.418182 14.072242-31.418182 31.418182s14.072242 31.418182 31.418182 31.418182l334.273939 0c17.345939 0 31.418182-14.072242 31.418182-31.418182S697.793939 645.647515 680.448 645.647515zM763.826424 425.115152 260.173576 425.115152c-18.137212 0-32.845576 14.708364-32.845576 32.845576s14.708364 32.845576 32.845576 32.845576l503.637333 0c18.137212 0 32.845576-14.708364 32.845576-32.845576S781.948121 425.115152 763.826424 425.115152zM765.98303 205.544727 262.345697 205.544727c-18.137212 0-32.845576 14.708364-32.845576 32.845576s14.708364 32.845576 32.845576 32.845576L765.98303 271.235879c18.137212 0 32.845576-14.708364 32.845576-32.845576S784.120242 205.544727 765.98303 205.544727zM271.127273 614.617212c-17.345939 0-31.418182 14.072242-31.418182 31.418182L239.709091 750.328242c0 17.345939 14.072242 31.418182 31.418182 31.418182 17.345939 0 31.418182-14.072242 31.418182-31.418182l0-104.292848C302.545455 628.689455 288.473212 614.617212 271.127273 614.617212zM752.872727 614.617212c-17.345939 0-31.418182 14.072242-31.418182 31.418182L721.454545 750.328242c0 17.345939 14.072242 31.418182 31.418182 31.418182 17.345939 0 31.418182-14.072242 31.418182-31.418182l0-104.292848C784.290909 628.689455 770.218667 614.617212 752.872727 614.617212z"  horiz-adv-x="1024" />

    
    <glyph glyph-name="biaozhusolid" unicode="&#59565;" d="M798.14656 230.69696l-250.0608 0 0-230.41024c0-17.05984-14.9504-31.00672-33.20832-31.00672l-6.16448 0c-18.26816 0-33.20832 13.95712-33.20832 31.00672L475.50464 230.69696l-250.0608 0c-19.52768 0-29.83936 21.6064-16.77312 35.15392l121.6512 126.208L330.32192 743.85408l-60.5184 0c-10.43456 0-18.97472 7.97696-18.97472 17.7152L250.8288 781.0048c0 9.74848 8.54016 17.7152 18.97472 17.7152l483.98336 0c10.43456 0 18.97472-7.97696 18.97472-17.7152l0-19.42528c0-9.74848-8.54016-17.7152-18.97472-17.7152l-60.5184 0 0-351.78496 121.6512-126.208C827.97568 252.30336 817.67424 230.69696 798.14656 230.69696zM453.02784 459.29472 453.02784 683.07968c0 17.44896-14.27456 31.73376-31.73376 31.73376l-2.21184 0c-17.44896 0-31.73376-14.27456-31.73376-31.73376l0-223.77472c0-17.44896 14.27456-31.73376 31.73376-31.73376l2.21184 0C438.75328 427.5712 453.02784 441.84576 453.02784 459.29472z"  horiz-adv-x="1024" />

    
    <glyph glyph-name="sanjiaoright" unicode="&#59063;" d="M755.974268 384 268.025732 749.024292l0-730.048584L755.974268 384"  horiz-adv-x="1024" />

    
    <glyph glyph-name="gongyongtingzhibofang" unicode="&#59282;" d="M512.001159 830.709475c-246.685347 0-446.71053-200.006596-446.71053-446.71053 0-246.722722 200.006596-446.71053 446.71053-446.71053 246.722722 0 446.71053 199.987808 446.71053 446.71053C958.730277 630.702879 758.742668 830.709475 512.001159 830.709475zM512.001159-5.863329c-215.316815 0-389.843686 174.545258-389.843686 389.862273s174.545458 389.843686 389.843686 389.843686c215.35419 0 389.862273-174.526671 389.862273-389.843686C901.88202 168.68193 727.355349-5.863329 512.001159-5.863329zM383.835456 544.075213l74.775702 0 0-336.491059-74.775702 0L383.835456 544.075213zM533.38706 544.075213l93.469827 0 0-336.491059-93.469827 0L533.38706 544.075213z"  horiz-adv-x="1024" />

    
    <glyph glyph-name="icon_arrow_right" unicode="&#58894;" d="M751.552 344.064l-399.232-399.232c-22.080-22.080-57.792-22.080-79.872 0-22.016 22.016-22.080 57.792 0 79.872l359.296 359.296-359.296 359.296c-22.016 22.016-22.080 57.792 0 79.872s57.792 22.016 79.872 0l399.232-399.232c22.016-22.080 22.016-57.792 0-79.872z"  horiz-adv-x="1024" />

    
    <glyph glyph-name="gou1" unicode="&#58896;" d="M1209.571556 866.190222 472.177778 102.627556 163.726222 420.750222c-37.660444 39.822222-97.735111 39.822222-135.509333 0-37.546667-39.936-37.546667-103.424 0-135.168l368.753778-381.724444C419.498667-112.184889 442.140444-128 464.554667-128c22.641778 0 52.792889 7.964444 67.811556 31.744l805.205333 827.164444c37.546667 39.822222 37.546667 103.424 0 135.281778C1307.306667 905.898667 1247.345778 905.898667 1209.571556 866.190222L1209.571556 866.190222zM1209.571556 866.190222"  horiz-adv-x="1366" />

    
    <glyph glyph-name="icons64x6460" unicode="&#59001;" d="M288.032 15.216c-3.664 0-7.36 0.848-10.8 2.544-8.16 4.064-13.232 12.224-13.232 21.28L264 708.784c0 13.12 10.768 23.808 24 23.808l448 0c13.232 0 24-10.688 24-23.808l0-662.8c0-9.04-5.056-17.2-13.216-21.264-8.24-4.112-17.92-3.248-25.296 2.304l-204.96 154.496L302.528 20.096C298.256 16.88 293.168 15.216 288.032 15.216zM296 700.592l0-645.328 206 155.376c8.56 6.432 20.512 6.432 29.04 0l196.96-148.464L728 700.592 296 700.592zM390.704 610l242.576 0 0-32-242.576 0 0 32ZM390.704 493.376l242.576 0 0-32-242.576 0 0 32Z"  horiz-adv-x="1024" />

    
    <glyph glyph-name="6" unicode="&#58905;" d="M198.636247 752.270948c15.965422 0 31.931849 0.053288 47.898276 0.055299 38.790977 0.005027 77.588993-0.327774 116.378965-0.151822 47.264847 0.213154 94.607113 0.802343 141.866932 0.197067 42.1019-0.539923 84.843261-1.869118 126.894888-0.059321 28.301196 1.217591 59.425674 3.315949 86.404713-4.812048 66.591463-20.060589 107.309873-72.146533 108.958799-143.028218 3.014317-129.615615 1.008459-602.626043 1.005443-603.264499-0.006033-1.507158 35.452908 3.539158 37.375314 4.040873 24.233175 6.31619 51.473629 19.480449 66.939346 39.712968 20.703067 27.087627 20.31195 57.210684 20.391379 89.558786 0.092501 37.732246 0.026142 75.46952 0.027147 113.201766 0.003016 48.320561 0.144784 96.645145 0.004022 144.964701-0.13674 47.057726 0.361959 94.1245-0.078425 141.17921-0.377041 40.184521 0.725929 80.183035-1.168324 120.35549-1.145199 24.302551-5.492732 43.975039-14.388888 66.849861-16.557627 42.577474-42.226574 86.320256-79.142402 114.166991-13.238661 9.98706-27.894997 17.843588-43.112369 24.371926-27.419423 11.764683-46.768158 18.532316-76.848987 18.48305-34.140806-0.056305-68.280606-0.226225-102.420406-0.021114-77.062141 0.462504-154.354528 1.486044-231.399577 0.255382-39.306769-0.627396-80.545999 7.270355-117.692073-10.307797-25.508076-12.071343-54.327075-34.577168-69.888309-58.042185C213.570085 805.345242 194.805511 752.270948 198.636247 752.270948zM764.278093 193.118228c0.107582 93.282945-1.562458 186.692576-0.127691 279.957423 0.300627 19.510612-1.006448 39.095626-0.319731 58.580097 1.339249 38.029857 3.201329 68.033267-18.889248 100.761426-21.284212 31.533693-52.73546 53.728837-91.306245 55.567791-47.813818 2.279338-96.420931 0.232257-144.293065-0.168914-92.846583-0.779218-185.767569 1.845992-278.582983-0.418264-18.692182-0.456471-36.972132 1.234683-55.595943 1.838954-11.613866 0.377041-23.176455-0.577124-34.701843-1.98776-24.121571-2.950974-44.327949-2.494503-65.361807-16.103167-22.39221-14.486416-41.697712-34.830539-52.131189-59.60967-2.579965-6.129178-4.362615-12.126642-5.587244-18.056742-4.611965-22.342943-1.304059-43.736749-2.943936-67.66427-1.534305-22.39221 0.691744-44.544119 0.911936-66.928286 0.272475-27.568228-1.617757-55.091211-1.111014-82.673516 1.079845-58.773142 0.425302-117.559354 0.71487-176.344561 0.250355-50.671286 0.428319-101.495399-0.335818-152.160653-0.520819-34.510809-6.136216-70.649429 12.412188-102.055431 13.115998-22.207209 32.05954-46.327774 54.598544-59.292956 15.207318-8.74735 36.080304-14.308452 53.666499-14.317501l521.488844 0c0 0 106.576906 9.512492 107.24653 106.705602C764.52141 50.202619 764.195647 121.662434 764.278093 193.118228zM639.604228 121.279361c0-31.096326-25.208455-56.30478-56.30478-56.30478L197.121045 64.97458c-31.096326 0-56.30478 25.208455-56.30478 56.30478l0 8.986645c0 31.096326 25.208455 56.30478 56.30478 56.30478l386.178402 0c31.096326 0 56.30478-25.208455 56.30478-56.30478L639.604228 121.279361zM639.604228 371.621474c0-31.096326-25.208455-56.30478-56.30478-56.30478L197.121045 315.316694c-31.096326 0-56.30478 25.208455-56.30478 56.30478l0 8.986645c0 31.096326 25.208455 56.30478 56.30478 56.30478l386.178402 0c31.096326 0 56.30478-25.208455 56.30478-56.30478L639.604228 371.621474z"  horiz-adv-x="1024" />

    
    <glyph glyph-name="jia" unicode="&#58969;" d="M967.460547 349.889706 586.925143 349.889706 586.925143-58.949983C586.925143-97.069187 555.99433-128 517.875127-128 479.721363-128 448.82511-97.069187 448.82511-58.949983L448.82511 349.889706 68.255147 349.889706C30.550658 349.889706 0 380.440364 0 418.144853 0 455.849342 30.550658 486.4 68.255147 486.4L448.82511 486.4 448.82511 826.949983C448.82511 865.069187 479.721363 896 517.875127 896 555.99433 896 586.925143 865.069187 586.925143 826.949983L586.925143 486.4 967.460547 486.4C1005.165035 486.4 1035.750253 455.849342 1035.750253 418.144853 1035.750253 380.440364 1005.165035 349.889706 967.460547 349.889706Z"  horiz-adv-x="1036" />

    
    <glyph glyph-name="xiangqing" unicode="&#58932;" d="M512-128C794.769789-128 1024 101.230211 1024 384 1024 666.769792 794.769789 896 512 896 229.230208 896 0 666.769792 0 384 0 101.230211 229.230208-128 512-128ZM227.555556 554.666667C227.555556 586.085532 252.806532 611.555556 284.444444 611.555556 315.86331 611.555556 341.333333 586.304579 341.333333 554.666667 341.333333 523.247801 316.082357 497.777778 284.444444 497.777778 253.025579 497.777778 227.555556 523.028754 227.555556 554.666667ZM227.555556 213.333333C227.555556 244.752196 252.806532 270.222222 284.444444 270.222222 315.86331 270.222222 341.333333 244.971247 341.333333 213.333333 341.333333 181.91447 316.082357 156.444444 284.444444 156.444444 253.025579 156.444444 227.555556 181.69542 227.555556 213.333333ZM398.222222 554.666667C398.222222 586.085532 423.132806 611.555556 455.277757 611.555556L739.388911 611.555556C770.899809 611.555556 796.444444 586.304579 796.444444 554.666667 796.444444 523.247801 771.533858 497.777778 739.388911 497.777778L455.277757 497.777778C423.766856 497.777778 398.222222 523.028754 398.222222 554.666667ZM398.222222 213.333333C398.222222 244.752196 423.132806 270.222222 455.277757 270.222222L739.388911 270.222222C770.899809 270.222222 796.444444 244.971247 796.444444 213.333333 796.444444 181.91447 771.533858 156.444444 739.388911 156.444444L455.277757 156.444444C423.766856 156.444444 398.222222 181.69542 398.222222 213.333333Z"  horiz-adv-x="1024" />

    
    <glyph glyph-name="bofang" unicode="&#58895;" d="M527.535835-44.253644c-245.36529 0-444.982654 199.590757-444.982654 444.951955 0 245.36836 199.618387 444.982654 444.982654 444.982654 245.337661 0 444.951955-199.644993 444.951955-444.982654S772.873496-44.253644 527.535835-44.253644zM527.535835 790.132834c-214.728526 0-389.434523-174.732603-389.434523-389.434523 0-214.69885 174.705997-389.403824 389.434523-389.403824 214.69885 0 389.403824 174.678368 389.403824 389.403824C916.939659 615.42786 742.233662 790.132834 527.535835 790.132834zM383.853411 263.573233c8.464789-73.354682 82.566484-49.849338 82.566484-49.849338L715.847711 354.621902c51.886741 53.509704-0.557702 88.672552-0.557702 88.672552L489.140363 581.630103c-103.699804 42.600237-105.287975-42.615587-105.287975-42.615587L383.853411 263.573233 383.853411 263.573233z"  horiz-adv-x="1024" />

    
    <glyph glyph-name="icon_wrong" unicode="&#58921;" d="M834.976 7.264c-35.264-13.824-75.328-5.664-102.368 20.864l-220.32 220.064-220.224-220.064c-37.536-37.504-98.368-37.504-135.904 0-37.536 37.472-37.536 98.304 0 135.776l220.288 220.096-220.288 220.064c-37.536 37.504-37.536 98.304 0 135.808 37.536 37.504 98.368 37.504 135.904 0l220.224-220.16 220.32 220.16c37.696 36.352 97.632 35.84 134.688-1.216 37.056-37.056 37.568-96.928 1.12-134.592l-220.224-220.064 220.224-220.096c18.88-18.976 28.864-45.056 27.456-71.808-1.792-37.792-25.632-71.008-60.896-84.832z"  horiz-adv-x="1024" />

    
    <glyph glyph-name="shijian2" unicode="&#59344;" d="M796.791741 408.598234l99.05297 0 0-55.481615-99.05297 0 0 55.481615ZM519.382641 144.591375l55.481615 0 0-99.05297-55.481615 0 0 99.05297ZM803.820218 598.34799l-70.039632-70.039632-39.23105 39.23105 70.039632 70.039632 39.23105-39.23105ZM764.592611 124.123731l-70.039632 70.039632 39.23105 39.23105 70.039632-70.039632-39.23105-39.23105ZM388.881424 231.045399l131.559315 131.612527L520.440739 628.663302l84.127026 0 0-299.284317c-5.849218-5.849218-156.153456-157.846004-156.153456-157.846004L388.881424 231.045399zM570.04653 841.374892l0-79.81379c206.260667 0 374.085954-167.825286 374.085954-374.117676 0-206.281133-167.825286-374.107443-374.085954-374.107443-189.280948 0-346.091366 141.384078-370.630249 324.072887l56.933687-56.158021 56.44557 56.44557L156.845721 493.645213 0.491697 337.685161l56.44557-56.44557 61.48433 61.48433c22.539342-229.363851 216.477356-409.214009 451.646424-409.214009 250.265904 0 453.911 203.63384 453.911 453.921233C1023.956507 637.729795 820.3329 841.374892 570.04653 841.374892z"  horiz-adv-x="1024" />

    
    <glyph glyph-name="modify-password" unicode="&#59109;" d="M661.869 768c-129.306 0-234.131-104.832-234.131-234.15 0-26.829 4.57-52.57 12.877-76.576l-282.234-280.166c-40.512-40.518-40.512-106.208 0-146.72 40.512-40.518 106.195-40.518 146.707 0l19.507 19.36h56.531c13.139 0 23.789 10.65 23.789 23.789v55.232h55.226c13.139 0 23.789 10.65 23.789 23.789v55.36l104.397 103.635c23.136-7.654 47.84-11.853 73.542-11.853 129.306 0 234.131 104.832 234.131 234.15-0 129.318-104.826 234.15-234.131 234.15v0zM718.061 515.117c-40.083 0-72.582 32.499-72.582 72.589s32.493 72.589 72.582 72.589c40.083 0 72.582-32.499 72.582-72.589 0-40.090-32.499-72.589-72.582-72.589v0z"  horiz-adv-x="1024" />

    
    <glyph glyph-name="touzi" unicode="&#59097;" d="M1004.070519 187.089369l-84.36597 0c45.599527 70.804906 72.822609 154.251224 72.822609 244.386801C992.527158 685.067788 781.596329 896 527.967371 896c-253.557045 0-458.895283-210.932212-458.895283-464.52383 0-90.135576 26.447255-173.581894 71.053835-244.386801l-83.905453 0c-31.013708 0-56.22047-28.077736-56.22047-62.628992l0-190.717846c0-34.621786 24.675715-61.742531 56.22047-61.742531l947.848666 0c31.436886 0 56.961723 27.686365 56.961723 61.742531L1061.030859 124.460377C1061.069582 159.011633 1035.507405 187.089369 1004.070519 187.089369L1004.070519 187.089369zM347.837278 383.681925c-9.770438 0-17.701572 7.929751-17.701572 17.701572 0 9.770438 7.931134 17.701572 17.701572 17.701572L513.489421 419.085069 513.489421 439.158376 363.768693 660.285587c-5.451531 8.10815-3.363299 19.083125 4.744851 24.534656 8.106767 5.487487 19.081742 3.433828 24.569229-4.708895l138.072264-203.922113 137.362818 203.851583c5.451531 8.142723 16.532992 10.232339 24.570612 4.815381 8.106767-5.452914 10.266912-16.462462 4.813998-24.570612L548.891183 439.158376l0-20.073306 164.873551 0c9.769055 0 17.701572-7.931134 17.701572-17.701572 0-9.771821-7.931134-17.701572-17.701572-17.701572l-164.873551 0 0-71.37191 164.873551 0c9.769055 0 17.701572-7.929751 17.701572-17.702955s-7.931134-17.702955-17.701572-17.702955l-164.873551 0 0-72.682932c0-8.813447-6.548199-15.753016-14.975807-17.133186l-5.451531 0c-8.424842 1.380169-14.974424 8.319739-14.974424 17.133186l0 72.682932L347.837278 276.904105c-9.770438 0-17.701572 7.929751-17.701572 17.702955s7.931134 17.702955 17.701572 17.702955L513.489421 312.310015l0 71.37191L347.837278 383.681925 347.837278 383.681925zM1025.666437-66.222896c0-14.512523-9.665335-26.338003-21.562728-26.338003l-947.883239 0c-11.683038 0-20.817326 11.576552-20.817326 26.338003L35.403145 124.49495c0 15.01038 9.345877 27.224465 20.817326 27.224465l108.474682 0c30.376175-39.36802 66.523338-74.132249 108.051504-101.818614 3.009267-2.230675 6.26608-3.681374 9.699908-4.743468l-161.261323 0c-9.771821 0-17.701572-7.929751-17.701572-17.702955 0-9.769055 7.929751-17.702955 17.701572-17.702955l820.928393 0c9.769055 0 17.701572 7.932517 17.701572 17.702955 0 9.771821-7.931134 17.702955-17.701572 17.702955L775.189189 45.157333c3.397872 1.026138 6.618729 2.476837 9.629379 4.743468 42.059212 27.686365 78.878483 62.450594 109.856234 101.818614l109.43029 0c11.683038 0 21.562728-12.460247 21.562728-27.224465L1025.66782-66.222896 1025.666437-66.222896z"  horiz-adv-x="1062" />

    
    <glyph glyph-name="jiantouyou" unicode="&#58906;" d="M133.240607-60.410626l-69.099774 67.271126 390.564253 378.87912L64.140833 764.606461l69.099774 67.275219L592.907705 385.739621 133.240607-60.410626zM496.768087-60.410626l-69.099774 67.271126 390.564253 378.87912L427.668313 764.606461 496.768087 831.880657l459.664028-446.14206L496.768087-60.410626z"  horiz-adv-x="1024" />

    
    <glyph glyph-name="wenbenzhantie" unicode="&#59119;" d="M692.26496 719.36512l-108.25216 0L584.0128 773.48864c0 29.7728-24.36608 54.12352-54.12352 54.12352L421.64224 827.61216c-29.75744 0-54.1184-24.35072-54.1184-54.12352l0-54.12352L259.2768 719.36512 259.2768 596.0704l432.98816 0L692.26496 719.36512zM529.88928 719.36512 421.64224 719.36512l0 54.016c0.03072 0.0256 0.05632 0.0512 0.10752 0.10752l108.0576 0c0.0256-0.0256 0.08192-0.0512 0.10752-0.10752L529.88928 719.36512zM566.17984 311.84896 672.8704 311.84896 672.8704 104.33536 727.27552 104.33536 727.27552 311.84896 833.70496 311.84896 833.70496 366.2592 566.17984 366.2592ZM800.512 509.24544 800.512 692.30592c0 14.87872-12.1856 27.0592-27.0592 27.0592l-54.12352 0 0-44.1344-0.60416 0L718.72512 570.88 450.56 570.88l-20.48 0L232.00256 570.88 232.00256 665.2416l0.21504 0L232.2176 719.36512 178.09408 719.36512c-14.87872 0-27.0592-12.18048-27.0592-27.0592l0-630.66624c0-14.87872 12.18048-27.0592 27.0592-27.0592l258.31424 0 0-72.9344 526.47424-0.0512L962.88256 509.24544 800.512 509.24544zM490.53184 15.7696 490.53184 455.12192l418.2272 0 0.13312-439.3472L490.53184 15.7696z"  horiz-adv-x="1024" />

    
    <glyph glyph-name="menu-build-bg" unicode="&#58923;" d="M512 896c-282.624 0-512-229.376-512-512s229.376-512 512-512c282.624 0 512 229.376 512 512 0 282.624-229.376 512-512 512zM718.848 357.376h-161.792v-161.792c0-19.456-16.384-35.84-35.84-35.84s-35.84 16.384-35.84 35.84v161.792h-161.792c-19.456 0-35.84 16.384-35.84 35.84s16.384 35.84 35.84 35.84h161.792l-0 161.792c0 19.456 16.384 35.84 35.84 35.84s35.84-16.384 35.84-35.84v-161.792h161.792c19.456 0 35.84-16.384 35.84-35.84-0-20.48-16.384-35.84-35.84-35.84z"  horiz-adv-x="1024" />

    
    <glyph glyph-name="shanchu1" unicode="&#59002;" d="M512-64c-247.424 0-448 200.576-448 448s200.576 448 448 448 448-200.576 448-448-200.576-448-448-448zM512 720c-185.536 0-336-150.464-336-336s150.464-336 336-336 336 150.464 336 336-150.464 336-336 336zM707.968 328h-391.936c-15.488 0-28.032 12.544-28.032 28.032v55.936c0 15.488 12.544 28.032 28.032 28.032h392c15.488 0 28.032-12.544 28.032-28.032v-56c-0.064-15.424-12.608-27.968-28.096-27.968z"  horiz-adv-x="1024" />

    
    <glyph glyph-name="xiangxia" unicode="&#58939;" d="M553.1392 117.11488l451.61472 451.61472c22.64576 22.64576 22.64576 59.4176 0 82.14016-22.64576 22.64576-59.4176 22.64576-82.14016 0l-410.5472-410.61888-410.61888 410.624c-22.64576 22.64576-59.4176 22.64576-82.14016 0-22.64576-22.64576-22.64576-59.4176 0-82.14016l451.69152-451.69152a58.08128 58.08128 0 0 1 82.14016 0.07168z"  horiz-adv-x="1024" />

    
    <glyph glyph-name="mima" unicode="&#58885;" d="M512-121.6c-192 0-352 172.8-352 377.6V448h704v-192c0-211.2-160-377.6-352-377.6zM217.6 384v-128c0-172.8 134.4-313.6 294.4-313.6s294.4 140.8 294.4 313.6V384H217.6zM512 38.4c-51.2 0-89.6 44.8-89.6 96v64c0 51.2 38.4 96 89.6 96s89.6-51.2 89.6-102.4v-64c0-51.2-38.4-89.6-89.6-89.6z m0 185.6c-19.2 0-32-12.8-32-32v-64c0-19.2 12.8-32 32-32s32 12.8 32 32v64c0 19.2-12.8 32-32 32zM748.8 512h-57.6V646.4c0 102.4-76.8 179.2-179.2 179.2S332.8 748.8 332.8 646.4V512h-57.6V646.4C275.2 780.8 384 889.6 512 889.6s236.8-108.8 236.8-243.2V512z"  horiz-adv-x="1024" />

    
    <glyph glyph-name="yuyin" unicode="&#59312;" d="M800.687 504.932v0.017c-22.153 0-40.105-18.114-40.105-40.436v-63.965c0-105.562-68.874-202.232-170.772-226.616-145.813-34.887-282.255 79.882-282.255 219.291v71.29c0 22.321-18.761 40.435-40.914 40.435-22.141 0-40.115-18.114-40.115-40.435v-71.29c0-144.762 101.697-266.154 238.085-298.482 16.671-3.961 27.86-19.845 27.86-37.095v-35.69c0-19.185-13.895-35.446-32.724-38.204-20.074-2.948-44.946-6.702-61.234-9.466-31.197-5.29-40.869-28.325-40.869-42.969 0-14.832 11.493-41.905 41.881-41.905h269.043c30.397 0 41.892 27.074 41.892 41.905 0 14.646-9.66 37.678-40.869 42.969-16.277 2.764-41.16 6.517-61.222 9.466-18.839 2.758-32.724 19.019-32.724 38.204v34.618c0 17.382 11.379 33.339 28.197 37.171 135.882 30.865 237.76 153.288 237.76 299.46v71.307c-0.001 22.32-18.775 40.419-40.914 40.419zM535.527 235.622c94.52-0.04 171.157 74.36 171.157 166.128v302.428c0 91.728-80.016 166.088-174.471 166.128-94.52 0.04-171.166-74.362-171.166-166.128v-302.428c0-91.727 80.016-166.089 174.48-166.128z"  horiz-adv-x="1024" />

    
    <glyph glyph-name="shuju" unicode="&#59029;" d="M399.5 777.7c0 31.093 24.939 56.3 56.777 56.3h111.445c31.357 0 56.777-25.011 56.777-56.3v-787.402c0-31.093-24.939-56.3-56.777-56.3h-111.445c-31.357 0-56.777 25.011-56.777 56.3v787.402zM737 327.917c0 30.973 24.939 56.083 56.778 56.083h111.445c31.357 0 56.777-25.483 56.777-56.083v-337.834c0-30.973-24.939-56.083-56.778-56.083h-111.445c-31.357 0-56.777 25.483-56.777 56.083v337.834zM62 552.611c0 31.142 24.939 56.389 56.778 56.389h111.445c31.357 0 56.777-25.637 56.777-56.389v-562.222c0-31.142-24.939-56.389-56.777-56.389h-111.445c-31.357 0-56.778 25.637-56.778 56.389v562.222z"  horiz-adv-x="1024" />

    
    <glyph glyph-name="yinliang1" unicode="&#58987;" d="M628.224 360.448h-218.112v47.616h225.28zM646.144 481.792h-236.032v47.104h242.688zM663.552 602.624h-253.44v47.616h260.608zM681.472 723.968h-271.36v47.104h278.016zM698.88 844.8h-288.768v47.104h295.936zM575.488-2.56h-165.376v47.104h172.032zM557.568-123.904h-147.456v47.616h154.624zM410.112 286.72h207.36l-6.656-47.104h-200.704zM410.112 165.888h189.952l-7.168-47.616h-182.784z"  horiz-adv-x="1024" />

    
    <glyph glyph-name="text" unicode="&#59209;" d="M790.307 805.862h-556.614c-27.014 0-49.111-21.533-49.111-47.844v-749.037c0-26.318 22.098-47.844 49.113-47.844h556.611c27.014 0 49.111 21.525 49.111 47.844v749.038c0.001 26.306-22.097 47.843-49.11 47.843zM273.703 398.139c-5.078 5.080-7.618 11.096-7.618 18.045v51.335c0 6.95 2.54 12.966 7.618 18.044 5.081 5.080 11.096 7.621 18.049 7.621h204.298c6.952 0 12.966-2.541 18.046-7.621 5.078-5.079 7.619-11.094 7.619-18.044v-51.335c0-6.949-2.541-12.965-7.619-18.045-5.080-5.080-11.094-7.619-18.046-7.619h-204.298c-6.953 0-12.968 2.539-18.049 7.619zM722.471 317.133l-256.961-256.964c-4.462-4.461-9.86-6.691-16.199-6.691-6.103 0-11.387 2.23-15.846 6.691l-127.475 127.474c-4.225 4.226-6.338 9.508-6.338 15.847 0 6.572 2.113 11.973 6.338 16.198l32.045 31.693c4.459 4.46 9.742 6.69 15.847 6.69 6.103 0 11.385-2.23 15.845-6.69l79.584-79.585 209.426 209.073c4.459 4.46 9.74 6.69 15.846 6.69 6.102 0 11.385-2.23 15.846-6.69l32.043-31.692c4.227-4.228 6.34-9.626 6.34-16.199h0.002c-0.001-6.338-2.117-11.62-6.343-15.845zM762.377 623.746c0-6.949-2.539-12.965-7.617-18.045-5.080-5.080-11.096-7.619-18.047-7.619h-444.961c-6.953 0-12.968 2.539-18.049 7.619-5.078 5.080-7.618 11.096-7.618 18.045v51.334c0 6.951 2.54 12.967 7.618 18.045 5.081 5.081 11.096 7.621 18.049 7.621h444.961c6.951 0 12.967-2.54 18.047-7.621 5.078-5.078 7.617-11.094 7.617-18.045v-51.334z"  horiz-adv-x="1024" />

    
    <glyph glyph-name="quanminbiaozhu" unicode="&#58910;" d="M619.312083 327.629218v-31.93812H438.670077v31.93812h-31.93812V508.271225h31.93812l387.792651 387.792651 180.705883-180.642006-387.856528-387.792652z m-148.703886 31.93812h116.765766L470.608197 476.333105v-116.765767z m58.382883 148.703887l90.321003-90.321004 297.471649 297.471649-90.321004 90.321003L528.99108 508.271225zM654.763396 127.504959H143.753478v63.87624h511.009918v-63.87624z m-511.009918 447.133679h191.628719v-63.87624H143.753478v63.87624z m191.628719-255.50496H143.753478v63.87624h191.628719v-63.87624z m255.504959 383.257439H143.753478c-45.607635 0-63.87624-17.374337-63.87624-63.87624v-638.762397c0-46.501903 18.268605-63.87624 63.87624-63.87624h638.762397c45.607635 0 63.87624 17.374337 63.87624 63.87624v447.133678c0 9.900817 48.41819-14.563783 63.87624 0l-2.107916-454.351694c0-66.303537-53.528289-120.534464-119.129187-120.534464H135.066309c-65.600898 0-119.129187 54.230928-119.129187 120.534464V631.616244c0 66.303537 62.215458 134.651113 127.816356 134.651113h447.133678c9.964693 0 7.47352-22.165055 7.47352-32.065872 0-9.964693 2.491173-31.810367-7.47352-31.810368z m319.381199-255.504959c0 9.900817 7.218015 6.770881 0 0z"  horiz-adv-x="1024" />

    
    <glyph glyph-name="wenben" unicode="&#58909;" d="M691.1 747.1V797.8h-50.8V747H538.8V797.8H488V747H386.4V797.8h-50.8V747c-56.1 0-101.5-45.5-101.5-101.5V87c0-56.1 45.5-101.5 101.5-101.5H691c56.1 0 101.5 45.5 101.5 101.5V645.5c0.1 56.1-45.4 101.6-101.4 101.6z m-25.4-558.5H361.1c-14 0-25.4 11.4-25.4 25.4 0 14 11.4 25.4 25.4 25.4h304.6c14 0 25.4-11.4 25.4-25.4 0-14-11.4-25.4-25.4-25.4z m0 152.3H361.1c-14 0-25.4 11.4-25.4 25.4 0 14 11.4 25.4 25.4 25.4h304.6c14 0 25.4-11.4 25.4-25.4 0-14-11.4-25.4-25.4-25.4z m0 152.3H361.1c-14 0-25.4 11.4-25.4 25.4 0 14 11.4 25.4 25.4 25.4h304.6c14 0 25.4-11.4 25.4-25.4 0-14-11.4-25.4-25.4-25.4z"  horiz-adv-x="1024" />

    
    <glyph glyph-name="weibiaoti-" unicode="&#58928;" d="M226.555911 674.351438m-83.424921 0a83.42492 83.42492 0 1 1 166.849841 0 83.42492 83.42492 0 1 1-166.849841 0ZM736.920128 812.57508m-83.42492 0a83.42492 83.42492 0 1 1 166.84984 0 83.42492 83.42492 0 1 1-166.84984 0ZM512 410.172524m-103.054313 0a103.054313 103.054313 0 1 1 206.108626 0 103.054313 103.054313 0 1 1-206.108626 0ZM1004.370607 331.654952c-15.539936 206.108626-163.578275 396.677316-232.28115 378.683706-86.696486-22.900958-13.086262-359.872204-176.664537-440.84345a196.29393 196.29393 0 0 0-163.578275 0C297.71246 337.380192 336.153355 533.674121 249.456869 560.664537 176.664537 580.29393 53.980831 462.517572 22.900958 331.654952a377.865815 377.865815 0 0 1 76.063898-303.4377 482.555911 482.555911 0 0 1 269.086262-154.581469 262.543131 262.543131 0 0 0-115.322683 114.504792c-63.795527 122.683706-31.079872 293.623003 22.900958 306.709265s107.961661-81.789137 137.405751-158.670926a113.686901 113.686901 0 0 1 219.194888 15.539936c44.984026 105.507987 126.773163 212.651757 171.757188 197.929712s68.702875-172.57508 20.447285-293.623003a357.41853 357.41853 0 0 0-155.399361-183.207668 452.29393 452.29393 0 0 1 262.543131 156.217253 444.932907 444.932907 0 0 1 72.792332 302.619808z"  horiz-adv-x="1024" />

    
    <glyph glyph-name="shanchu2" unicode="&#58911;" d="M707.072 457.216h-390.144c-27.136 0-48.64-22.016-48.64-48.64 0-27.136 22.016-48.64 48.64-48.64h390.144c27.136 0 48.64 22.016 48.64 48.64 0.512 26.624-21.504 48.64-48.64 48.64zM512 895.488c-269.312 0-487.424-218.112-487.424-487.424s218.112-487.424 487.424-487.424 487.424 218.112 487.424 487.424S781.312 895.488 512 895.488z m-3.072-877.056c-218.624 0-388.608 171.52-388.608 390.144s169.984 396.288 388.608 396.288 396.288-177.152 396.288-396.288-177.152-390.144-396.288-390.144z"  horiz-adv-x="1024" />

    
    <glyph glyph-name="tanhao" unicode="&#58907;" d="M512 896C230.4 896 0 665.6 0 384s230.4-512 512-512 512 230.4 512 512S793.6 896 512 896z m0-938.666667C277.333333-42.666667 85.333333 149.333333 85.333333 384S277.333333 810.666667 512 810.666667s426.666667-192 426.666667-426.666667-192-426.666667-426.666667-426.666667zM512 192c-34.133333 0-64-29.866667-64-64s29.866667-64 64-64 64 29.866667 64 64-29.866667 64-64 64zM512 727.978667c-36.778667 0-66.602667-29.824-66.602667-66.602667l25.216-344.149333c0-36.736 4.608-66.602667 41.386667-66.602667 36.736 0 41.429333 29.824 41.429333 66.602667l25.173334 344.149333c0 36.778667-29.866667 66.602667-66.602667 66.602667z"  horiz-adv-x="1024" />

    
    <glyph glyph-name="shangyibu" unicode="&#58955;" d="M857.6-57.6c0-19.2 0-32-12.8-38.4l-6.4-6.4c-12.8-6.4-19.2-6.4-32-6.4s-19.2 6.4-32 12.8l-601.6 448c-6.4 6.4-12.8 19.2-12.8 32s6.4 25.6 12.8 32l608 448c25.6 19.2 51.2 19.2 64 0 12.8-12.8 12.8-25.6 12.8-38.4v-883.2z"  horiz-adv-x="1024" />

    
    <glyph glyph-name="xiugai" unicode="&#59046;" d="M821.841 523.58L651.515 693.904c-11.543 11.545-28.58 13.226-38.051 3.755L223.497 307.692c-9.471-9.472-31.227-243.486-31.227-243.486s233.888 21.883 243.359 31.354l389.966 389.968c9.469 9.47 7.791 26.507-3.754 38.052z m-63.949-20.904l-42.676-42.674L587.938 587.28l42.676 42.675 127.278-127.279zM291.128 134.569a6606.954 6606.954 0 0 0-31.94-3.405 6672.625 6672.625 0 0 0 3.377 31.854c7.462 68.732 12.055 99.727 14.47 113.359l268.476 268.476L672.79 417.575 404.3 149.085c-13.612-2.419-44.555-7.023-113.172-14.516z"  horiz-adv-x="1024" />

    
    <glyph glyph-name="cuowu" unicode="&#58886;" d="M601.650463 384.01152l403.766915 403.702916A63.486572 63.486572 0 0 1 915.691397 877.440418L511.98848 473.673502 108.285564 877.440418A63.486572 63.486572 0 0 1 18.559582 787.714436L422.326498 384.01152 18.559582-19.691397a63.486572 63.486572 0 0 1 89.725982-89.725981L511.98848 294.349537l403.702917-403.766915a63.358574 63.358574 0 0 1 89.725981 89.725981L601.650463 384.01152z"  horiz-adv-x="1024" />

    
    <glyph glyph-name="iconfontyonghu" unicode="&#58975;" d="M947.924-46.427c0-21.751-17.62-39.371-39.353-39.371-21.751 0-39.371 17.62-39.371 39.371l-0.353 3.655c0 1.554 0.282 3.054 0.441 4.59-24.576 172.791-172.721 299.767-353.103 301.762-1.448-0.035-2.825-0.23-4.29-0.23-1.43 0-2.807 0.194-4.237 0.23-178.317-1.977-325.049-126.146-352.097-295.936 0.9-3.337 1.536-6.78 1.536-10.399l0.371-3.708c0-22.087-17.902-39.989-39.971-39.989s-39.989 17.902-39.989 39.989l-0.035 0.353h-0.759c0.106 1.165 0.335 2.278 0.459 3.425 0 3.302 0.53 6.426 1.271 9.498 20.498 159.303 127.241 288.097 272.525 343.57-84.586 54.201-139.741 149.963-139.741 259.372 0 169.225 131.478 306.406 300.703 306.406 169.207 0 300.703-137.181 300.703-306.406 0-109.374-55.102-205.118-139.652-259.319 144.278-55.031 250.545-182.325 272.19-340.039 1.465-4.131 2.436-8.527 2.436-13.171l0.318-3.655zM743.495 569.668c0 127.947-103.706 231.654-231.654 231.654s-231.654-103.724-231.654-231.654c0-127.929 103.724-231.636 231.654-231.636s231.654 103.706 231.654 231.636z"  horiz-adv-x="1024" />

    
    <glyph glyph-name="rili" unicode="&#58938;" d="M128 725.333333c-23.509333 0-42.666667-19.157333-42.666667-42.666666v-682.666667c0-23.552 19.157333-42.666667 42.666667-42.666667h768c23.552 0 42.666667 19.114667 42.666667 42.666667V682.666667c0 23.509333-19.114667 42.666667-42.666667 42.666666H128z m768-853.333333H128c-70.570667 0-128 57.429333-128 128V682.666667c0 70.570667 57.429333 128 128 128h768c70.570667 0 128-57.429333 128-128v-682.666667c0-70.570667-57.429333-128-128-128zM301.3376 640h-5.341867a40.0896 40.0896 0 0 0-39.970133 39.978667V855.978667c0 22.016 17.962667 40.021333 39.970133 40.021333h5.341867c22.016 0 39.970133-18.005333 39.970133-40.021333v-176A40.0896 40.0896 0 0 0 301.346133 640M728.004267 640h-5.341867a40.0896 40.0896 0 0 0-39.970133 39.978667V855.978667c0 22.016 17.962667 40.021333 39.970133 40.021333h5.341867c22.016 0 39.970133-18.005333 39.970133-40.021333v-176A40.0896 40.0896 0 0 0 728.0128 640M298.666667 170.666667H213.333333c-23.466667 0-42.666667 19.2-42.666666 42.666666s19.2 42.666667 42.666666 42.666667h85.333334c23.466667 0 42.666667-19.2 42.666666-42.666667s-19.2-42.666667-42.666666-42.666666M554.666667 170.666667H469.333333c-23.466667 0-42.666667 19.2-42.666666 42.666666s19.2 42.666667 42.666666 42.666667h85.333334c23.466667 0 42.666667-19.2 42.666666-42.666667s-19.2-42.666667-42.666666-42.666666M298.666667 384H213.333333c-23.466667 0-42.666667 19.2-42.666666 42.666667s19.2 42.666667 42.666666 42.666666h85.333334c23.466667 0 42.666667-19.2 42.666666-42.666666s-19.2-42.666667-42.666666-42.666667M810.666667 384H725.333333c-23.466667 0-42.666667 19.2-42.666666 42.666667s19.2 42.666667 42.666666 42.666666h85.333334c23.466667 0 42.666667-19.2 42.666666-42.666666s-19.2-42.666667-42.666666-42.666667M554.666667 384H469.333333c-23.466667 0-42.666667 19.2-42.666666 42.666667s19.2 42.666667 42.666666 42.666666h85.333334c23.466667 0 42.666667-19.2 42.666666-42.666666s-19.2-42.666667-42.666666-42.666667"  horiz-adv-x="1024" />

    
    <glyph glyph-name="xiayige" unicode="&#58926;" d="M512.32 895.36C229.73 895.36 0.64 666.27 0.64 383.68 0.64 101.09 229.73-128 512.32-128 794.91-128 1024 101.09 1024 383.68 1024 666.27 794.91 895.36 512.32 895.36z m170.493-514.828c-0.1-1.065-0.367-2.1-0.567-3.165-0.2-1.033-0.349-2.082-0.666-3.115-0.284-0.967-0.7-1.882-1.1-2.832-0.433-1.065-0.815-2.149-1.364-3.181-0.434-0.832-1.017-1.616-1.532-2.415-0.7-1.066-1.35-2.115-2.165-3.098-0.133-0.185-0.217-0.366-0.367-0.534-0.466-0.55-1.032-0.932-1.531-1.45-0.768-0.78-1.433-1.63-2.266-2.348L396.777 152.806a33.349 33.349 0 0 0-21.594-7.912c-9.46 0-18.872 3.98-25.45 11.694-11.951 13.991-10.236 34.928 3.797 46.786l213.424 153.988 1.315 1.115 0.95 0.8c6.545 6.062 10.66 14.707 10.66 24.3 0 10.062-4.514 19.056-11.61 25.153v0.166L353.53 563.999c-14.033 11.86-15.748 32.813-3.798 46.787 11.885 13.94 32.962 15.674 47.045 3.78L671.254 408.98c0.733-0.617 1.266-1.35 1.933-1.998 0.6-0.617 1.3-1.117 1.865-1.782 0.15-0.184 0.234-0.367 0.367-0.534 0.816-0.999 1.481-2.064 2.165-3.114 0.515-0.8 1.098-1.583 1.532-2.416 0.55-1.032 0.933-2.099 1.365-3.18 0.4-0.933 0.833-1.866 1.099-2.833 0.316-1.032 0.465-2.065 0.666-3.115s0.467-2.082 0.567-3.148c0.1-1.066 0.05-2.116 0.05-3.165 0-1.063 0.05-2.113-0.05-3.162z"  horiz-adv-x="1024" />

    
    <glyph glyph-name="goumai" unicode="&#58899;" d="M423.42 672.434c5.334 33.73 22.056 76.362 55.08 102.774 44.74 35.792-29.824 32.814-80.54 26.844-50.7-5.966-161.054 23.864-184.916 2.986-23.868-20.88-14.918-53.69 11.92-71.584 15.658-10.434 34.292-39.06 47.168-61.166C119.776 617.266 6 400.232 6 140.698c0-33.126 1.95-65.502 5.5-97.012 6.484-21.562 27.06-71.58 78.844-71.58h506.408s72.924 2.32 86.68 62.6c0.918 7.4 1.77 14.82 2.5 22.324 0.076 3.312 0.316 6.2 0.72 8.734 2.114 24.508 3.29 49.498 3.29 74.934 0 259.756-113.978 476.94-266.52 531.736z m16.06-505.646c-20.53-21.58-47.11-33.134-79.748-34.684v-47.14h-27.436v46.612c-23.298 2.94-42.246 8.16-56.834 15.662-14.578 7.508-27.18 19.648-37.8 36.38-10.61 16.738-16.772 37.2-18.52 61.356l46.866 8.804c3.624-25.038 10.006-43.404 19.178-55.148 13.106-16.564 28.822-25.8 47.11-27.694v148.352c-19.148 3.62-38.75 11.04-58.764 22.272-14.836 8.28-26.288 19.76-34.3 34.416-8.03 14.684-12.04 31.34-12.04 49.98 0 33.132 11.718 59.984 35.192 80.526 15.708 13.81 39.026 22.26 69.912 25.362v22.27h27.436v-22.27c27.108-2.584 48.596-10.52 64.478-23.814 20.376-16.918 32.608-40.132 36.754-69.652l-48.158-7.244c-2.76 18.296-8.488 32.324-17.22 42.068-8.7 9.756-20.666 16.2-35.854 19.288v-134.374c23.48-5.862 39-10.442 46.626-13.716 14.47-6.388 26.296-14.156 35.46-23.302 9.13-9.15 16.184-20.03 21.098-32.62 4.912-12.61 7.394-26.23 7.394-40.91 0-32.288-10.3-59.208-30.83-80.78zM359.732 312.82v-141.884c18.14 2.248 33.114 10.09 44.926 23.562 11.826 13.46 17.74 30.112 17.74 49.96 0 16.916-4.192 30.5-12.546 40.78-8.396 10.28-25.092 19.454-50.12 27.58zM273.788 429.574c0-15.872 4.432-29.166 13.32-39.86 8.912-10.71 23.95-19.254 45.188-25.636v128.94c-18.13-2.766-32.404-10.014-42.852-21.756-10.45-11.72-15.656-25.636-15.656-41.688zM1006.242 305.224c-0.314-0.732-0.496-1.456-0.86-2.196a331.794 331.794 0 0 0-9.514-17.834c-0.02-0.044-0.036-0.084-0.076-0.13 0.886-3.908 0.956-8.214-0.108-12.904-3.44-15.086-9.696-30.462-18.198-44.646-6.732-74.468-70.048-132.836-147.276-132.836-81.694 0-147.92 65.34-147.92 145.968 0 6.908 0.554 13.68 1.508 20.328-11.696 17.54-21.78 35.884-26.102 52.91-9.86-22.472-15.432-47.188-15.432-73.238 0-102.436 84.156-185.438 187.946-185.438 103.808 0 187.954 83.002 187.954 185.44 0 22.748-4.288 44.47-11.92 64.576zM1002.286 227.586c-3.274-19.39-12.564-38.688-19.15-57.33a34.842 34.842 0 0 0-5.222-9.62c0.054-1.512 0.256-2.98 0.256-4.51 0-77.84-66.24-140.92-147.96-140.92-81.694 0-147.92 63.08-147.92 140.92 0 5.124 0.35 10.16 0.92 15.132-12.508 18.172-21.632 41.26-21.502 63.586-12.342-23.74-19.444-50.388-19.444-78.718 0-98.896 84.156-179.026 187.946-179.026 103.808 0 187.954 80.13 187.954 179.026 0 25.47-5.74 49.6-15.88 71.46zM830.21 512.32c-103.79 0-187.946-83.034-187.946-185.44 0-102.44 84.156-185.442 187.946-185.442 103.808 0 187.954 83.004 187.954 185.442 0 102.406-84.146 185.44-187.954 185.44z m0-331.41c-81.694 0-147.92 65.34-147.92 145.97 0 80.61 66.226 145.96 147.92 145.96 81.72 0 147.96-65.35 147.96-145.96 0-80.63-66.24-145.97-147.96-145.97zM877.73 325.618c-4.36 4.296-9.976 7.936-16.85 10.924-3.606 1.54-10.984 3.68-22.132 6.432v62.97c7.214-1.47 12.894-4.48 17.04-9.04 4.154-4.574 6.838-11.142 8.18-19.72l22.87 3.4c-1.972 13.834-7.788 24.708-17.46 32.624-7.56 6.248-17.752 9.954-30.63 11.17v10.436h-13.026v-10.436c-14.658-1.448-25.734-5.44-33.184-11.882-11.164-9.634-16.72-22.214-16.72-37.732 0-8.74 1.892-16.55 5.718-23.422 3.81-6.848 9.218-12.24 16.282-16.12 9.49-5.272 18.82-8.738 27.904-10.44v-69.52c-8.682 0.904-16.15 5.224-22.386 12.99-4.322 5.498-7.376 14.118-9.086 25.834l-22.26-4.12c0.848-11.314 3.752-20.904 8.792-28.754 5.04-7.834 11.04-13.52 17.952-17.032 6.92-3.524 15.914-5.99 26.988-7.358v-21.834h13.026v22.082c15.494 0.72 28.126 6.152 37.876 16.28 9.75 10.08 14.628 22.7 14.628 37.83 0 6.872-1.16 13.254-3.494 19.178-2.338 5.896-5.69 10.992-10.028 15.26z m-52.008 20.152c-10.08 2.992-17.234 6.992-21.446 12.006-4.234 5.014-6.33 11.258-6.33 18.692 0 7.502 2.466 14.026 7.432 19.516 4.968 5.508 11.754 8.912 20.344 10.188v-60.402z m34.368-79.46c-5.612-6.31-12.716-9.998-21.342-11.048v66.486c11.884-3.8 19.81-8.108 23.788-12.916 3.992-4.816 5.976-11.176 5.976-19.114 0-9.298-2.796-17.12-8.422-23.408z"  horiz-adv-x="1024" />

    
    <glyph glyph-name="yonghu1" unicode="&#58901;" d="M512 234.7c-117.6 0-213.3 95.7-213.3 213.3S394.4 661.3 512 661.3 725.3 565.6 725.3 448 629.6 234.7 512 234.7z m0 341.3c-70.6 0-128-57.4-128-128s57.4-128 128-128 128 57.4 128 128-57.4 128-128 128zM837 33.1c-15.7 0-30.8 8.7-38.2 23.7C744.3 166.5 634.4 234.7 512 234.7s-232.3-68.1-286.8-177.9c-10.5-21.1-36.1-29.7-57.2-19.2s-29.7 36.1-19.2 57.2C217.8 233.7 357 320 512 320s294.2-86.3 363.2-225.2c10.5-21.1 1.9-46.7-19.2-57.2-6.1-3-12.6-4.5-19-4.5zM512-106.7c-270.6 0-490.7 220.1-490.7 490.7S241.4 874.7 512 874.7s490.7-220.1 490.7-490.7-220.1-490.7-490.7-490.7z m0 896c-223.5 0-405.3-181.8-405.3-405.3S288.5-21.3 512-21.3 917.3 160.5 917.3 384 735.5 789.3 512 789.3z"  horiz-adv-x="1024" />

    
    <glyph glyph-name="xiugaimima" unicode="&#58903;" d="M798.435556 473.315556H300.600889V536.576c0 130.218667 94.833778 236.088889 211.399111 236.088889s211.399111-105.870222 211.399111-237.909333l0.227556-22.983112h6.087111a48.696889 48.696889 0 0 1 42.780444-27.022222c18.773333 0 35.214222 11.548444 43.406222 28.444445l5.575112 0.341333v23.04c0 187.335111-138.808889 339.683556-309.418667 339.683556-170.666667 0-309.475556-152.348444-309.475556-339.683556v-65.422222c-59.392-11.946667-104.448-68.380444-104.448-136.021334v-287.800888c0-76.117333 57.230222-138.24 127.374223-138.24h572.928c70.200889 0 127.431111 62.122667 127.431111 138.24V335.132444c0 76.174222-57.173333 138.183111-127.431111 138.183112zM196.323556 335.132444c0 19.114667 13.084444 34.531556 29.184 34.531556h572.928c16.042667 0 29.184-15.416889 29.184-34.531556v-287.800888c0-19.000889-13.084444-34.531556-29.184-34.531556H225.507556c-16.042667 0-29.184 15.530667-29.184 34.531556V335.132444zM512 335.132444c-43.178667 0-78.051556-38.684444-78.051556-86.357333 0-37.432889 21.902222-68.664889 51.939556-80.440889v-92.216889c0-15.872 11.719111-28.785778 26.112-28.785777s26.055111 12.913778 26.055111 28.785777v92.216889c30.094222 11.776 51.996444 43.008 51.996445 80.440889 0 47.672889-34.872889 86.357333-78.051556 86.357333z m0-115.143111c-14.392889 0-26.112 13.027556-26.112 28.785778 0 15.872 11.719111 28.785778 26.112 28.785778s26.055111-12.913778 26.055111-28.785778c0-15.758222-11.662222-28.785778-26.055111-28.785778z"  horiz-adv-x="1024" />

    
    <glyph glyph-name="guize" unicode="&#58931;" d="M268.8 588.8H704c19.2 0 38.4 19.2 38.4 38.4s-19.2 38.4-38.4 38.4H268.8c-12.8 0-19.2-6.4-25.6-12.8-6.4-6.4-12.8-19.2-12.8-25.6 0-19.2 19.2-38.4 38.4-38.4z m0-160H640c12.8 0 19.2 6.4 25.6 12.8 6.4 6.4 12.8 19.2 12.8 25.6 0 19.2-19.2 38.4-38.4 38.4H268.8c-12.8 0-19.2-6.4-25.6-12.8-6.4-6.4-12.8-12.8-12.8-25.6 0-19.2 19.2-38.4 38.4-38.4zM704 281.6c12.8 0 19.2 6.4 25.6 12.8 6.4 6.4 12.8 19.2 12.8 25.6 0 19.2-19.2 38.4-38.4 38.4H268.8c-12.8 0-19.2-6.4-25.6-12.8-6.4-6.4-12.8-19.2-12.8-25.6 0-19.2 19.2-38.4 38.4-38.4H704zM908.8 896H102.4c-12.8 0-19.2-6.4-25.6-12.8-6.4-6.4-12.8-12.8-12.8-25.6v-947.2c0-19.2 19.2-38.4 38.4-38.4h556.8c6.4 0 19.2 0 25.6 6.4l249.6 211.2c6.4 6.4 12.8 19.2 12.8 25.6V857.6c0 19.2-19.2 38.4-38.4 38.4z m-768-76.8h729.6v-640h-224c-12.8 0-19.2-6.4-25.6-12.8-6.4-6.4-12.8-19.2-12.8-25.6v-192H140.8V819.2z m537.6-844.8v128H832l-153.6-128z"  horiz-adv-x="1024" />

    
    <glyph glyph-name="biaozhugongju" unicode="&#58927;" d="M822.716 278.505v-205.22H201.284V694.716h345.88V776.58H119.42V-8.58h785.16V278.505zM751.633 662.525l99.46-99.46-35.935-35.935-99.46 99.46 35.935 35.935zM403.523 214.944l121.602 22.14 254.102 254.103-99.461 99.462-254.102-254.104z"  horiz-adv-x="1024" />

    
    <glyph glyph-name="wenben1" unicode="&#59308;" d="M955.155 729.043c-3.026 7.616-7.871 14.061-13.317 19.919-5.448 5.858-12.715 10.545-20.583 13.474-7.871 2.929-16.349 5.271-24.822 5.271h-63.569v64.44c0 17.575-6.053 32.806-18.768 45.107C801.383 889.557 786.249 896 769.297 896h-641.73c-17.556 0-32.087-6.443-44.8-18.746C70.054 864.953 64 849.722 64 832.147v-768.585c0-17.575 6.054-32.806 18.768-45.107 12.713-12.303 27.849-18.747 44.8-18.747h64.778v-63.854c0-17.574 6.054-32.805 18.162-45.107 12.107-12.302 27.242-18.746 45.405-18.746h640.52a60.932 60.932 0 0 1 24.822 5.272c7.868 3.516 14.528 8.201 20.583 13.474 6.053 5.272 10.291 12.303 13.317 20.504S960-72.348 960-64.146V703.855c-0.607 9.372-1.818 17.575-4.845 25.188z m-260.928 29.878c6.056-5.858 9.082-13.474 9.082-22.261 0-8.787-3.026-16.403-9.082-22.846-6.054-6.444-13.319-9.958-23.005-9.958H412.713c-3.632 0-7.869 1.171-12.107 2.929-4.238 1.756-7.267 4.101-10.897 7.029-3.027 2.342-5.45 5.858-7.265 9.958-1.816 4.101-2.422 8.201-2.422 12.303 0 15.817 7.265 26.362 22.399 31.047 3.633 0.586 7.266 1.172 9.687 1.172h259.114c9.685 0 17.555-3.515 23.005-9.373z m-23.005-182.774c9.686 0 16.951-2.93 23.005-9.374 6.056-5.858 9.082-13.473 9.082-22.261s-3.026-16.402-9.082-22.847c-6.054-6.444-13.319-9.959-23.005-9.959H220.799c-9.686 0-17.556 2.931-23.61 9.959-6.054 6.444-9.687 14.059-9.687 22.847s3.026 16.402 9.687 22.261c6.055 5.858 13.925 9.374 23.61 9.374h450.423zM197.188 137.373c-6.054 6.444-9.687 14.061-9.687 22.847 0 8.788 3.026 16.403 9.687 22.263 6.055 5.857 13.925 9.371 23.61 9.371h450.423c9.686 0 16.951-2.929 23.005-9.371 6.056-6.444 9.082-13.475 9.082-22.849 0-5.271-1.213-10.545-4.24-15.229-3.026-4.688-6.657-8.788-11.502-12.304-4.842-3.516-10.291-4.686-16.345-4.686H220.799c-9.081 0-16.949 3.516-23.611 9.958z m503.698 202.105c-1.817-3.514-3.633-7.029-6.659-9.958-2.422-2.342-6.054-5.271-10.293-7.029-4.238-1.757-8.475-2.929-12.712-2.929H220.799c-6.054 0-12.107 1.758-16.346 4.687-4.843 2.93-8.475 7.03-12.107 12.301-3.027 4.688-4.844 9.96-4.844 15.232 0 9.373 3.026 16.988 9.687 22.846 6.055 5.857 13.925 9.373 23.61 9.373h450.423c9.686 0 16.951-2.929 23.005-9.373 6.056-5.857 9.082-13.473 9.082-22.846 0-4.688-0.607-8.789-2.423-12.304z m194.94-404.209H255.309v63.854h512.778c10.897 0 21.794 2.929 31.48 8.787s17.556 13.474 23.609 23.434c6.055 9.958 9.082 20.503 9.082 32.219V703.855h63.567v-768.586h0.001z"  horiz-adv-x="1024" />

    
    <glyph glyph-name="duihua" unicode="&#58976;" d="M310.64915968 513.7006592c-36.03267584 0-63.057756160000004-27.02508032-63.057756160000004-63.057756160000004s27.02508032-63.057756160000004 63.057756160000004-63.057756160000004 63.057756160000004 27.02508032 63.057756160000004 63.057756160000004c0 36.0349696-27.02508032 63.057756160000004-63.057756160000004 63.057756160000004zM508.83002368 513.7006592c-36.03267584 0-63.057756160000004-27.02508032-63.057756160000004-63.057756160000004s27.02508032-63.057756160000004 63.057756160000004-63.057756160000004 63.057756160000004 27.02508032 63.057756160000004 63.057756160000004c0 36.0349696-27.02278656 63.057756160000004-63.057756160000004 63.057756160000004zM508.83002368 828.9894400000001C265.60888832 828.9894400000001 67.42802432000002 653.32871168 67.42802432000002 441.63530751999997c0-117.1079168 58.55281152-225.20594432000001 162.14818816-301.77624064V-62.824448000000075l202.68580864 121.61056768c27.02508032-4.50494464 54.05016064-4.50494464 81.0729472-4.50494464 243.22113536 0 441.40199936 175.66072831999998 441.40199936 387.35413248S752.0534528000001 828.9894400000001 508.83002368 828.9894400000001z m0-702.64061952c-27.02508032 0-58.55281152 4.50494464-90.08283648 9.007595519999999h-4.50494464l-117.1079168-67.5627008v112.60297216000001l-4.50494464 4.50494464c-99.090432 58.55281152-157.64324351999997 153.14059264000002-157.64324351999997 256.73367551999996 0 175.66072831999998 166.65313279999998 315.2887807999999 369.33664768 315.2887807999999s369.33664768-139.62805247999998 369.33664768-315.2887807999999c4.509532159999999-175.65843455999996-162.14360064-315.28648703999994-364.82940928-315.28648703999994zM716.0207769600001 513.7006592c-36.03267584 0-63.057756160000004-27.02508032-63.057756160000004-63.057756160000004s27.02508032-63.057756160000004 63.057756160000004-63.057756160000004 63.057756160000004 27.02508032 63.057756160000004 63.057756160000004c0 36.0349696-27.02508032 63.057756160000004-63.057756160000004 63.057756160000004z"  horiz-adv-x="1024" />

    
    <glyph glyph-name="lishijilu" unicode="&#58880;" d="M813.097211-128c-154.318241 0-279.791524 125.473283-279.791524 279.791524s125.473283 279.791524 279.791524 279.791524 279.791524-125.473283 279.791524-279.791524-125.6204-279.791524-279.791524-279.791524z m0 486.378206c-113.907665 0-206.586682-92.677028-206.586682-206.586682s92.677028-206.586682 206.586682-206.586682 206.586682 92.677028 206.586681 206.586682c-0.147117 113.907665-92.82514 206.586682-206.586681 206.586682zM683.671638 623.677668H260.542996c-20.204791 0-36.603415 16.398624-36.603415 36.603415s16.398624 36.603415 36.603415 36.603416h423.128642c20.204791 0 36.603415-16.398624 36.603415-36.603416s-16.398624-36.603415-36.603415-36.603415zM552.778867 429.095968H260.394885c-20.204791 0-36.603415 16.398624-36.603415 36.603415s16.398624 36.603415 36.603415 36.603416h292.236864c20.204791 0 36.603415-16.398624 36.603415-36.603416s-16.251507-36.603415-36.457291-36.603415zM399.632595 234.661386H260.394885c-20.204791 0-36.603415 16.398624-36.603415 36.603415s16.398624 36.603415 36.603415 36.603415H399.632595c20.204791 0 36.603415-16.398624 36.603415-36.603415s-16.251507-36.603415-36.603415-36.603415zM891.575418 86.784503H778.400358V234.952639c0 20.204791 16.398624 36.603415 36.603415 36.603415s36.603415-16.398624 36.603416-36.603415v-74.963294h39.970217c20.204791 0 36.603415-16.398624 36.603415-36.603415s-16.398624-36.603415-36.603415-36.603415z m-708.629912-96.631307c-9.664025 0-50.36486 1.90358-80.671053 31.332039-14.49405 14.056674-31.624285 39.678965-31.624285 81.990139V780.188754c-0.439364 9.515914-0.147117 51.098459 29.428458 82.722745 14.202797 15.079538 40.410576 33.088501 84.772448 33.088501l583.888241-0.291253c2.636185-0.291253 26.645155-3.366802 50.952336-17.276358 35.724687-20.351908 55.342996-54.173015 55.342996-95.313214v-342.456595c0-20.204791-16.398624-36.603415-36.603416-36.603415s-36.603415 16.398624-36.603415 36.603415V783.265298c0 14.347926-5.123265 23.571593-17.130235 30.89168-9.224661 5.56263-19.180933 7.906568-22.986106 8.63818H184.85008c-14.49405 0-24.888692-3.221673-31.185915-9.664026-8.638179-8.933408-10.101401-24.304199-9.956272-29.868816l0.147117-1.464216V103.766627c0-20.351908 7.173963-27.232631 9.515914-29.573588 10.54176-10.248519 28.841976-10.688877 29.281341-10.688877h344.945663c20.204791 0 36.603415-16.398624 36.603415-36.603415s-16.398624-36.603415-36.603415-36.603415H183.970358c-0.291253-0.147117-0.731611-0.147117-1.024852-0.147118z"  horiz-adv-x="1136" />

    
    <glyph glyph-name="yuyin1-copy" unicode="&#58920;" d="M196.2527 373.40470000000005m-93.9781 0a4.497 4.497 0 1 1 187.9562 0 4.497 4.497 0 1 1-187.9562 0ZM421.8253 664.8477c0 0-11.264 11.7238-37.6372 11.7238-28.8601 0-52.2449-23.3848-52.2449-52.2449 0-31.7649 25.0567-45.9964 36.7595-49.6327 65.745-42.8617 109.3799-116.7569 109.3799-201.0802 0-84.4904-43.7812-158.511-109.7561-201.31-13.2493-4.2423-36.3833-15.0256-36.3833-49.5282 0-28.8601 23.3848-52.2449 52.2449-52.2449 26.3732 0 37.6372 11.7238 37.6372 11.7238 96.5695 61.1056 160.8934 168.5629 160.8934 291.2967S518.3948 603.7629 421.8253 664.8477zM646.2694 858.3001c0 0-16.9064 6.353-42.6527 6.353-34.6279 0-62.6939-28.0869-62.6939-62.6939 0-24.4924 49.6118-53.3525 66.6854-62.2759 87.855-88.6909 142.2942-210.526 142.2942-345.2343 0-147.9784-65.7868-280.2416-169.3571-370.2282-23.1758-9.1951-39.6225-31.744-39.6225-58.1799 0-34.607 28.066-62.6939 62.6939-62.6939 28.2749 0 45.5784 8.6309 45.5784 8.6309 137.8429 111.0727 226.095 281.2029 226.095 472.0222C875.2901 576.1358 785.7633 747.2900999999999 646.2694 858.3001z"  horiz-adv-x="1024" />

    
    <glyph glyph-name="yonghu2" unicode="&#58902;" d="M512-128C229.248-128 0 101.248 0 384S229.248 896 512 896s512-229.248 512-512-229.248-512-512-512z m0 938.666667C276.352 810.666667 85.333333 619.648 85.333333 384s191.018667-426.666667 426.666667-426.666667 426.666667 191.018667 426.666667 426.666667S747.648 810.666667 512 810.666667z m0-768a340.650667 340.650667 0 0 0-266.24 128A340.650667 340.650667 0 0 0 512 298.666667a340.48 340.48 0 0 0 266.197333-128A340.48 340.48 0 0 0 512 42.666667z m0 298.666666a170.666667 170.666667 0 1 0 0 341.333334 170.666667 170.666667 0 0 0 0-341.333334z"  horiz-adv-x="1024" />

    
    <glyph glyph-name="zuixiaohua" unicode="&#58893;" d="M511.424-126.84799999999996c282.453 0 511.424 228.97 511.424 511.424C1022.848 667.029 793.878 896 511.424 896 228.971 896 0 667.03 0 384.576c0-282.453 228.97-511.424 511.424-511.424z m321.877 473.13H186.24a42.88 42.88 0 0 0 0 85.76h647.083a42.88 42.88 0 0 0 0-85.76z"  horiz-adv-x="1024" />

    
    <glyph glyph-name="x" unicode="&#58934;" d="M624.9680330105832 386.69873027804243l250.7402153042948 250.7321582846697c31.458330960090294 31.46638686471125 31.458330960090294 82.46835581539618 0 113.92668677548642-31.46638686471125 31.458330960090294-82.46029991077516 31.458330960090294-113.93474268010745 0L511.0413462350968 500.6334729581504 260.3091879504269 751.3575753381995c-31.46638686471125 31.458330960090294-82.46029991077516 31.458330960090294-113.93474268010745 0-31.458330960090294-31.458330960090294-31.458330960090294-82.46835581539618 0-113.92668677548642L397.1066046699937 386.69873027804243l-250.73215939967363-250.7402153042948c-31.458330960090294-31.46638686471125-31.458330960090294-82.46835581539618 0-113.93474268010745a80.3335399758272 80.3335399758272 0 0 1 56.96334283024116-23.59576135996988 80.3335399758272 80.3335399758272 0 0 1 56.9633439452453 23.59576135996988l250.7321582846697 250.7402153042948 250.7402153042948-250.7402153042948a80.3335399758272 80.3335399758272 0 0 1 56.96334283024116-23.59576135996988 80.31742816658519 80.31742816658519 0 0 1 56.9633439452453 23.59576135996988c31.458330960090294 31.46638686471125 31.458330960090294 82.46835581539618 0 113.93474268010745L624.9680330105832 386.69873027804243z"  horiz-adv-x="1024" />

    
    <glyph glyph-name="yuyin-" unicode="&#58993;" d="M511.943556 152.0732h-8.91809c-110.290817 0-199.923272 89.745342-199.923272 199.923272v279.960313c0 110.290817 89.745342 199.923272 199.923272 199.923272h8.91809c110.290817 0 199.923272-89.745342 199.923272-199.923272v-279.960313c0.112887-53.169882-20.771249-103.291809-58.588468-141.109028-37.81722-37.930107-88.052034-58.814243-141.334804-58.814244z m-8.91809 615.912689c-36.123911 0-70.215853-14.22379-95.95414-39.962077-25.738287-25.738287-39.962077-59.830228-39.962077-96.067027v-279.960313c0-36.123911 14.22379-70.215853 39.962077-95.954139 25.738287-25.738287 59.830228-39.962077 96.067027-39.962077h8.918091c36.236799 0 70.32874 14.22379 96.179914 40.074964 25.738287 25.738287 39.84919 59.830228 39.849189 95.841252v279.960313c0 36.123911-14.22379 70.215853-39.962077 95.95414-25.738287 25.738287-59.830228 39.962077-96.067026 39.962077h-9.030978zM504.041451 32.074082c-44.138904 0-86.923162 8.692316-127.449675 25.851174-39.058979 16.594422-74.054018 40.300739-104.194907 70.441627-30.140889 30.140889-53.847205 65.248815-70.441627 104.194907-17.158858 40.413626-25.851174 83.310771-25.851174 127.449675 0 17.723294 14.336677 31.947084 31.947084 31.947084s31.947084-14.336677 31.947084-31.947084c0-70.215853 27.544482-136.367765 77.553522-186.376805s116.27384-77.553522 186.376806-77.553522 136.367765 27.544482 186.376805 77.553522 77.553522 116.27384 77.553522 186.376805c0 17.723294 14.336677 31.947084 31.947084 31.947084s31.947084-14.336677 31.947084-31.947084c0-44.138904-8.692316-86.923162-25.851174-127.449675-16.594422-39.058979-40.300739-74.054018-70.441627-104.194907-30.140889-30.140889-65.248815-53.847205-104.194907-70.441627-40.300739-17.158858-83.084996-25.851174-127.2239-25.851174zM504.041451-87.925036c-17.723294 0-31.947084 14.336677-31.947084 31.947084V64.021166c0 17.723294 14.336677 31.947084 31.947084 31.947084s31.947084-14.336677 31.947084-31.947084v-119.999118c0-17.723294-14.22379-31.947084-31.947084-31.947084z"  horiz-adv-x="1024" />

    
    <glyph glyph-name="shangchuan" unicode="&#58933;" d="M828.7 470.3h0.6C804 602.8 697.4 704.7 563.9 724.2c-133.5 19.4-264.7-47.9-326.8-167.7C98.3 547.2-7.2 428.1 0.4 289.3 8 150.5 125.8 43.5 264.7 49.4H814c113.2 0.4 205.9 90.2 209.9 203.4 3.9 113.2-82.3 209.2-195.2 217.5z m-127-125.1h-86.1c-6.5 0-11.7-5.3-11.7-11.7v-145.6c0-6.5-5.3-11.7-11.7-11.7H446.6c-6.5 0-11.7 5.3-11.7 11.7V333.5c0 6.5-5.3 11.7-11.7 11.7h-87.3c-10.5 0-15.7 12.6-8.3 20l183 183c4.6 4.6 12 4.6 16.6 0l183-183c7.2-7.4 2-20-8.5-20z"  horiz-adv-x="1024" />

    
    <glyph glyph-name="shanchu" unicode="&#58881;" d="M731.918 715.466H293.285c-40.383 0-73.106-32.72-73.106-73.103v-24.368h584.844v24.368c0.001 40.383-32.72 73.103-73.105 73.103m-127.696 48.735l10.756-76.91H410.225l10.756 76.91h183.24m5.855 48.735H415.128c-20.108 0-38.813-16.277-41.621-36.218L359.252 674.75c-2.784-19.917 11.4-36.194 31.508-36.194h243.685c20.108 0 34.293 16.276 31.484 36.217l-14.255 101.969c-2.786 19.917-21.49 36.194-41.598 36.194m134.026-243.675H281.1c-26.795 0-46.761-21.845-44.334-48.544l39.933-438.996c2.403-26.7 26.344-48.544 53.14-48.544h365.527c26.795 0 50.736 21.845 53.14 48.544l39.932 438.996c2.426 26.699-17.54 48.544-44.336 48.544M415.128 130.647h-73.106L317.653 471.79h97.474v-341.144z m146.211 0h-97.474V471.79h97.474v-341.144z m121.842 0h-73.106V471.79h97.474l-24.368-341.144z"  horiz-adv-x="1024" />

    
    <glyph glyph-name="xingquaihao" unicode="&#59204;" d="M635.52 421.12a178.56 178.56 0 0 0 95.36-28.16 195.84 195.84 0 0 0 199.68-5.12v307.2a134.4 134.4 0 0 1-128 136.96H192a134.4 134.4 0 0 1-128-136.96v-493.44A135.04 135.04 0 0 1 192 64h54.4a23.68 23.68 0 0 0 21.76-13.44L320-58.88a10.24 10.24 0 0 1 17.28 0l64 108.8a24.32 24.32 0 0 0 21.76 12.8H512a327.68 327.68 0 0 0-64 162.56 184.32 184.32 0 0 0 187.52 195.84zM373.76 351.36H231.68a33.28 33.28 0 0 0 0 64h142.08a33.28 33.28 0 0 0 0-64zM231.68 512a33.28 33.28 0 0 0 0 64h423.04a33.28 33.28 0 0 0 0-64zM917.76 330.24a145.92 145.92 0 0 1-103.68 42.88 143.36 143.36 0 0 1-87.04-28.8A143.36 143.36 0 1 1 539.52 128l138.24-128a64 64 0 0 1 49.28-19.84 70.4 70.4 0 0 1 49.28 19.84l138.88 128a141.44 141.44 0 0 1 4.48 199.68z m-171.52-304.64a28.16 28.16 0 0 0-19.84-8.96 28.8 28.8 0 0 0-22.4 8.96l-136.32 133.12a101.76 101.76 0 0 0 0 143.36 104.32 104.32 0 0 0 75.52 30.72 96.64 96.64 0 0 0 64-29.44 20.48 20.48 0 0 1 28.8 0 104.96 104.96 0 0 0 147.2 0 101.12 101.12 0 0 0 0-142.72z"  horiz-adv-x="1024" />

    
    <glyph glyph-name="huaxiang" unicode="&#58919;" d="M520.903111-28.444444c-175.217778 0-325.717333 107.747556-388.807111 260.494222l-76.515556-31.459556c75.434667-182.840889 255.658667-311.722667 465.351112-311.722666 32.881778 0 65.080889 3.214222 96.199111 9.272888l-16.981334 81.009778c-25.656889-4.977778-52.167111-7.594667-79.246222-7.594666z m0 840.817777c29.098667 0 57.628444-2.986667 85.048889-8.675555l22.584889 79.701333a502.129778 502.129778 0 0 1-107.633778 11.662222c-210.744889 0-391.765333-130.332444-466.488889-314.595555l79.104-25.031111C197.546667 706.275556 347.022222 812.373333 520.931556 812.373333z m403.057778-119.637333l-66.844445-48.583111a418.503111 418.503111 0 0 0 84.309334-252.302222c0-111.786667-43.946667-213.617778-115.342222-289.024l64.284444-52.394667A502.897778 502.897778 0 0 1 1024 391.964444c0 112.725333-37.290667 216.917333-100.010667 300.771556zM625.720889 608.426667c-56.888889 61.44-149.560889 63.089778-207.644445 2.275555-26.510222-27.818667-39.452444-61.070222-38.4-99.555555 1.678222-54.897778 28.643556-94.691556 75.093334-122.965334-1.308444-0.568889-1.792-0.853333-2.275556-1.052444a396.515556 396.515556 0 0 0-7.68-3.470222c-40.675556-16.725333-72.96-43.349333-96.711111-80.184889a194.275556 194.275556 0 0 1-31.146667-89.315556c-0.938667-8.903111 6.314667-15.445333 14.876445-13.312l381.070222-0.227555c5.688889-0.256 9.984 2.958222 11.52 8.903111 0.483556 2.360889 0.967111 5.233778 0.483556 7.594666-3.100444 13.909333-4.864 28.273778-9.614223 41.585778-20.679111 58.567111-59.875556 99.896889-116.906666 124.387556-3.697778 1.649778-7.367111 3.072-11.292445 4.835555 82.346667 42.439111 98.986667 155.392 38.627556 220.501334z m149.674667 102.997333a67.640889 67.640889 0 0 1 67.584 67.584 67.640889 67.640889 0 0 1-67.584 67.612444 67.640889 67.640889 0 0 1-67.584-67.612444 67.640889 67.640889 0 0 1 67.584-67.584zM135.196444 393.272889a67.640889 67.640889 0 0 1-67.612444 67.584A67.640889 67.640889 0 0 1 0 393.272889a67.640889 67.640889 0 0 1 67.584-67.612445 67.640889 67.640889 0 0 1 67.612444 67.612445z m623.189334-332.856889a67.640889 67.640889 0 0 1-67.612445-67.612444 67.640889 67.640889 0 0 1 67.612445-67.584 67.640889 67.640889 0 0 1 67.584 67.584 67.555556 67.555556 0 0 1-67.584 67.612444z"  horiz-adv-x="1024" />

    
    <glyph glyph-name="xiangyou" unicode="&#58882;" d="M797.696 777.728l-308.73599999-314.368s-31.744-24.576-31.74400001-76.288c0-45.056 22.016-72.192 22.016-72.192L797.696-2.048000000000002s86.016 13.312 34.816 83.456c-17.91999999 24.576-163.328 228.864-163.328 228.864s-35.328 95.744 11.77599999 163.328c46.592 67.072 160.768 221.184 160.76800001 221.184s29.696 72.192-44.032 82.944zM515.072 770.048l-308.736-314.368s-31.744-24.576-31.744-76.288c0-45.056 22.016-72.192 22.016-72.192L515.072-9.216000000000008s86.016 13.312 34.81600001 83.456c-17.91999999 24.576-163.328 228.864-163.32800001 228.864s-35.328 95.744 11.776 163.328c46.592 67.072 160.768 221.184 160.768 221.184s29.696 72.192-44.032 82.432z"  horiz-adv-x="1024" />

    
    <glyph glyph-name="mima1" unicode="&#58900;" d="M778.235 509.67v53.77c0 71.342-27.944 138.576-78.684 189.316-50.74 50.74-117.974 78.684-189.316 78.684S371.66 803.496 320.919 752.756c-50.74-50.74-78.684-117.974-78.684-189.316v-54.468C177.067 495.221 128 437.273 128 368.073V80.56c0-79.402 64.598-144 144-144h480c79.402 0 144 64.598 144 144V368.073c0 70.444-50.847 129.228-117.765 141.597z m-440 53.77c0 45.7 17.958 88.826 50.566 121.434 32.608 32.608 75.734 50.566 121.434 50.566s88.826-17.958 121.434-50.566c32.608-32.608 50.566-75.734 50.566-121.434v-51.367h-344V563.44zM800 80.56c0-26.4-21.6-48-48-48H272c-26.4 0-48 21.6-48 48V368.073c0 26.4 21.6 48 48 48h480c26.4 0 48-21.601 48-48V80.56zM444.118 334.442c-37.49-37.49-37.49-98.274 0-135.765a96.127 96.127 0 0 1 19.489-15.043v-51.081c0-26.51 21.49-48 48-48s48 21.49 48 48v50.642a96.038 96.038 0 0 1 20.275 15.482c37.49 37.49 37.49 98.274 0 135.765s-98.274 37.491-135.764 0z"  horiz-adv-x="1024" />

    
    <glyph glyph-name="zuidahua" unicode="&#58924;" d="M741.7 707.4H558.1v-91.8h119.3L526 464.2l64.3-64.3 151.5 151.5V432h91.8V707.4h-91.9zM425 363.2L282.8 220.9V340.2H191v-275.4h275.4v91.8H347l142.3 142.3-64.3 64.3z m0 0"  horiz-adv-x="1024" />

    
    <glyph glyph-name="zuixiaohua1" unicode="&#58925;" d="M195 394.6V288h138.6L157.7 112.1l74.6-74.6 175.9 175.9v-138.6h106.6V394.6H195z m666.4 271.9l-74.6 74.6-165.3-165.2V714.5H514.9v-319.9h319.9V501.2H696.1l165.3 165.3z m0 0"  horiz-adv-x="1024" />

    
    <glyph glyph-name="down-trangle" unicode="&#58883;" d="M547.91917154 121.79655444000002l463.16554303 463.16554305c17.70793165 17.70793165 17.70793165 47.52900238 0 66.16696909-17.70793165 17.70793165-47.52900238 17.70793165-66.16696906 0l-430.5462659-430.54626587-428.67971474 428.67971475c-17.70793165 17.70793165-47.52900238 17.70793165-66.16696907 0-17.70793165-17.70793165-17.70793165-47.52900238 0-66.1669691l461.29575138-461.29575137c19.56800169-18.63634642 48.45903743-18.63634642 67.108346 0Z"  horiz-adv-x="1024" />

    
    <glyph glyph-name="yinliang2" unicode="&#58891;" d="M431.208 789.08c-14.536 5.992-30.57 2.456-41.684-8.683l-190.82-192.43h-94.78c-21.468 0-38.633-17.024-38.633-38.486v-331.003c0-21.46 17.165-38.485 38.634-38.485h94.779l191.522-192.43c7.446-7.467 17.411-11.53 27.557-11.53 4.993 0 8.627 0.915 13.425 2.893 14.545 6.006 22.631 20.144 22.631 35.874V753.16c0 15.731-8.086 29.915-22.631 35.92z m-55.08-680.189L241.016 246.083c-7.299 7.32-15.827 11.619-26.164 11.619H143V510.258h71.852c10.337 0 18.865 4.297 26.164 11.618l135.112 137.192V108.89zM581.9 219.474c-7.679-8.59-18.318-12.965-29-12.965-9.222 0-18.475 3.259-25.892 9.886-16.012 14.302-17.388 38.87-3.08 54.87 97.047 108.534 10.117 213.894-0.114 225.55-14.113 16.08-12.633 40.605 3.388 54.79 16.021 14.188 40.432 12.817 54.698-3.127 50.878-56.895 116.353-198.882 0-329.004z m117.439-103.96c-7.678-8.592-18.318-12.965-29-12.965-9.22 0-18.48 3.26-25.892 9.885-16.011 14.303-17.388 38.871-3.08 54.872 191.54 214.21 7.912 424.498 0 433.345-14.307 16-12.931 40.57 3.08 54.872 15.997 14.303 40.575 12.927 54.892-3.08 2.4-2.683 237.313-271.533 0-536.929z m122.616-77.865c-7.679-8.59-18.318-12.966-29-12.966-9.221 0-18.475 3.26-25.892 9.887-16.012 14.302-17.388 38.87-3.08 54.87 109.225 122.153 142.596 257.94 99.178 403.597-32.953 110.56-98.519 184.729-99.178 185.468-14.308 16-12.932 40.565 3.08 54.872 15.992 14.307 40.57 12.93 54.892-3.079 3.095-3.46 306.144-350.28 0-692.65z"  horiz-adv-x="1024" />

    
    <glyph glyph-name="paixu" unicode="&#58960;" d="M276.533286 45.048265000000015c-27.509948 0-46.718325 18.921171-46.718325 46.013403l0 464.754696-83.516376-91.066057c-11.408065-11.376687-21.24979299-16.336924-32.694433-16.336924-27.30109 0-49.511631 20.644203-49.511631 46.013403 0 12.509718 4.766968 23.891801 13.788851 32.918881l162.067718 181.62066101c12.577672 9.794759 23.557428 13.98731701 36.589392 13.98731699 14.12822101 0 26.815419-4.89728 35.72278-13.794048l164.939171-180.9731c5.664759-9.481571 11.073892-19.928888 11.073892-33.759511 0-24.51298001-21.500423-46.013403-46.013403-46.013403-12.41578201 0-26.027154 6.202595-36.411913 16.58215701l-83.297125 90.81562699 0-464.7495C322.541493 63.11321699999996 304.481737 45.048265000000015 276.533286 45.048265000000015zM601.389034 627.7212130099999c0-26.836405 21.756249-48.592654 48.592654-48.59265401L911.312506 579.128559c26.836405 0 48.592654 21.756249 48.592654 48.59265401l0 0c0 26.836405-21.756249 48.592654-48.592654 48.592654l-261.331018-1e-8C623.14528301 676.313867 601.389034 654.55761799 601.389034 627.7212130099999L601.389034 627.7212130099999zM601.389034 384.001055c0-26.836405 21.756249-48.592654 48.592654-48.592654L911.312506 335.408401c26.836405 0 48.592654 21.756249 48.592654 48.592654l0 0c0 26.836205-21.756249 48.592654-48.592654 48.592654l-261.331018 0C623.145283 432.593709 601.389034 410.83746 601.389034 384.001055L601.389034 384.001055zM601.389034 140.28089801c0-26.836405 21.756249-48.592654 48.592654-48.59265401L911.312506 91.68824300000006c26.836405 0 48.592654 21.756249 48.592654 48.592654l0 0c0 26.836405-21.756249 48.592654-48.592654 48.592654l-261.331018 0C623.14528301 188.87355200000002 601.389034 167.117302 601.389034 140.28089801L601.389034 140.28089801z"  horiz-adv-x="1024" />

    
    <glyph glyph-name="fanhui" unicode="&#58888;" d="M1000.727273 407.272727H76.8L390.981818 742.4c9.309091 9.309091 9.309091 23.272727 0 32.581818-9.309091 9.309091-23.272727 9.309091-32.581818 0L6.981818 400.290909c-9.309091-9.309091-9.309091-23.272727 0-32.581818l351.418182-374.690909c9.309091-9.309091 23.272727-9.309091 32.581818 0 9.309091 9.309091 9.309091 23.272727 0 32.581818L76.8 360.727273H1000.727273c13.963636 0 23.272727 9.309091 23.272727 23.272727s-9.309091 23.272727-23.272727 23.272727z"  horiz-adv-x="1024" />

    
    <glyph glyph-name="qianwang" unicode="&#59288;" d="M511.178285 824.09125c-246.89104 0-447.035406-196.754153-447.035406-439.455777 0-242.705718 200.144366-439.4568 447.035406-439.4568s447.035406 196.750059 447.035406 439.4568c0.001023 242.701624-200.144366 439.455777-447.035406 439.455777z m0-805.477054c-205.687616 0-372.433314 163.873278-372.433314 366.021277 0 202.143906 166.744675 366.017184 372.433314 366.017184s372.433314-163.873278 372.433314-366.017184c0-202.148-166.745698-366.021278-372.433314-366.021277z m218.875986 392.456346L591.196737 584.156646c-14.544251 14.290471-38.129412 14.290471-52.676734 0a36.171828 36.171828 0 0 1 0-51.774177l89.542363-111.613031H303.635415c-20.217461 0-36.611849-16.390295-36.611849-36.611849v-0.215917c0-20.221554 16.394389-36.611849 36.611849-36.61185h323.480392l-88.540545-110.364596a36.165688 36.165688 0 0 1 0-51.774178c14.544251-14.301727 38.129412-14.301727 52.676733 0l138.858558 173.086104c7.882528 7.746428 11.482519 18.102287 10.821463 28.241205-0.329505 8.91709-3.949962 17.740036-10.877745 24.552185z"  horiz-adv-x="1024" />

    
    <glyph glyph-name="report-result" unicode="&#59093;" d="M764.48-42.879999999999995h-520a104 104 0 0 0-104 104v624a104 104 0 0 0 104 104h520a104 104 0 0 0 104-104v-624a104 104 0 0 0-104-104z m41.92 717.76a50.24 50.24 0 0 1-50.24 50.24H252.96a50.24 50.24 0 0 1-50.24-50.24v-603.68a50.4 50.4 0 0 1 50.24-50.24h503.04a50.24 50.24 0 0 1 50.24 50.24V675.04z m-120-457.6H322.56a25.92 25.92 0 0 0 0 52H686.4a25.92 25.92 0 0 0 0-52z m0 156H322.56a26.08 26.08 0 1 0 0 52H686.4a26.08 26.08 0 0 0 0-52z m-208 156h-155.84a26.08 26.08 0 1 0 0 52h156a26.08 26.08 0 0 0 0-52z"  horiz-adv-x="1024" />

    
    <glyph glyph-name="yinpin" unicode="&#58887;" d="M876.8 594.8L647.9 823.7l-7.6 7.6H212.8c-39.4 0-71.3-31.8-71.3-71.3v-767.1c0-39.4 31.8-71.3 71.3-71.3h600.4c39.4 0 71.3 31.8 71.3 71.3V587.2l-7.7 7.6z m-63.6-620.1H212.8c-9.1 0-18.2 7.6-18.2 18.2V760c0 9.1 7.6 18.2 18.2 18.2h389.6v-157.7c0-39.4 31.8-71.3 71.3-71.3h157.7v-556.4c0-9-9.1-18.1-18.2-18.1zM375 558.4M619 483l-166.1-50.9c-20.2-5.8-36.3-26.8-36.3-46.8v-175.1s-12 8.2-38.9 4.3c-39.4-5.6-71.3-35.7-71.3-67.4 0-31.7 31.9-51.1 71.3-45.5 39.4 5.6 68.2 34.8 68.2 66.4V337c0 14 16.9 20 16.9 20l146.9 46s16.3 5.4 16.3-9.5V254s-15 8.5-41.8 5.4c-39.4-4.9-71.3-34.4-71.3-66.1 0-31.7 31.9-51.7 71.3-47 39.4 4.9 71.3 34.4 71.3 66.1V457.1C655.4 477 639 488.6 619 483z m0 0"  horiz-adv-x="1024" />

    
    </font>
</defs>
</svg>
